<?xml version="1.0" encoding="UTF-8"?>
<svg version="1.1" xmlns="http://www.w3.org/2000/svg" width="454" height="96">
<path d="M0 0 C149.82 0 299.64 0 454 0 C454 31.68 454 63.36 454 96 C304.18 96 154.36 96 0 96 C0 64.32 0 32.64 0 0 Z " fill="#FDFEFE" transform="translate(0,0)"/>
<path d="M0 0 C3.0625 0.25 3.0625 0.25 6.0625 2.25 C6.1187279 5.21528179 6.01933804 7.93850026 5.75 10.875 C5.68876953 11.67679688 5.62753906 12.47859375 5.56445312 13.3046875 C5.41101492 15.28758124 5.23854307 17.26898519 5.0625 19.25 C5.85914063 18.98445313 6.65578125 18.71890625 7.4765625 18.4453125 C10.671875 17.38020833 13.8671875 16.31510417 17.0625 15.25 C18.08601562 14.88777344 19.10953125 14.52554687 20.1640625 14.15234375 C22.79248344 13.33406176 25.08088723 12.90885483 27.8125 12.6875 C31.05920961 12.42267781 31.05920961 12.42267781 34.0625 11.25 C38.11392119 10.99139865 39.60587669 10.94558446 43.0625 13.25 C43.0625 13.91 43.0625 14.57 43.0625 15.25 C43.7225 15.25 44.3825 15.25 45.0625 15.25 C44.7325 16.24 44.4025 17.23 44.0625 18.25 C42.4125 18.25 40.7625 18.25 39.0625 18.25 C39.0625 18.91 39.0625 19.57 39.0625 20.25 C37.82886719 20.70439453 37.82886719 20.70439453 36.5703125 21.16796875 C30.26528996 23.53417236 24.20718114 26.02787802 18.28125 29.234375 C16.0625 30.25 16.0625 30.25 13.34375 30.765625 C12.21453125 31.00539063 12.21453125 31.00539063 11.0625 31.25 C10.7325 31.91 10.4025 32.57 10.0625 33.25 C11.3825 33.91 12.7025 34.57 14.0625 35.25 C14.0625 35.91 14.0625 36.57 14.0625 37.25 C9.7725 37.25 5.4825 37.25 1.0625 37.25 C0.4025 40.88 -0.2575 44.51 -0.9375 48.25 C1.16698938 48.10890014 3.2710877 47.96195825 5.375 47.8125 C6.54675781 47.73128906 7.71851563 47.65007813 8.92578125 47.56640625 C12.08840958 47.3632629 12.08840958 47.3632629 15.0625 46.25 C17.0396511 46.09637963 19.01945476 45.97582776 21 45.875 C26.68334123 45.4880761 31.84663447 44.45878428 37.30859375 42.87109375 C40.3035262 42.1956409 43.00223751 42.14633868 46.0625 42.25 C46.0625 40.27 46.0625 38.29 46.0625 36.25 C48.5375 35.755 48.5375 35.755 51.0625 35.25 C51.0625 38.22 51.0625 41.19 51.0625 44.25 C53.7025 43.92 56.3425 43.59 59.0625 43.25 C60.04183813 39.72583785 60.04183813 39.72583785 59.34375 36.21875 C57.79654152 33.8413321 56.50211624 33.15821378 53.9375 32 C52.85082031 31.49726562 52.85082031 31.49726562 51.7421875 30.984375 C51.18789063 30.74203125 50.63359375 30.4996875 50.0625 30.25 C49.64235768 24.15793639 49.99534528 21.13058567 54.0625 16.25 C57.7066774 13.8205484 59.77491272 14.08820425 64.0625 14.25 C64.0625 14.91 64.0625 15.57 64.0625 16.25 C64.7225 16.25 65.3825 16.25 66.0625 16.25 C66.3125 23.875 66.3125 23.875 64.0625 27.25 C63.0725 27.25 62.0825 27.25 61.0625 27.25 C61.0625 24.61 61.0625 21.97 61.0625 19.25 C59.7425 19.25 58.4225 19.25 57.0625 19.25 C57.0625 19.91 57.0625 20.57 57.0625 21.25 C56.0725 21.25 55.0825 21.25 54.0625 21.25 C54.32906572 24.18443402 54.32906572 24.18443402 55.0625 27.25 C56.0525 27.91 57.0425 28.57 58.0625 29.25 C58.0625 29.91 58.0625 30.57 58.0625 31.25 C59.2690625 31.7140625 59.2690625 31.7140625 60.5 32.1875 C63.0625 33.25 63.0625 33.25 64.0625 34.25 C64.13429964 35.76928038 64.14642007 37.29167482 64.125 38.8125 C64.11597656 39.63878906 64.10695313 40.46507812 64.09765625 41.31640625 C64.08025391 42.27353516 64.08025391 42.27353516 64.0625 43.25 C62.7425 43.91 61.4225 44.57 60.0625 45.25 C60.0625 45.91 60.0625 46.57 60.0625 47.25 C58.64626784 47.30447047 57.22941809 47.34300508 55.8125 47.375 C55.02359375 47.39820313 54.2346875 47.42140625 53.421875 47.4453125 C50.85518059 47.2328378 49.2708933 46.53654105 47.0625 45.25 C46.96324219 45.87777344 46.86398438 46.50554688 46.76171875 47.15234375 C46.41560547 48.19068359 46.41560547 48.19068359 46.0625 49.25 C40.12680043 52.15965665 33.78002043 53.24702194 27.33203125 54.55859375 C24.89450948 55.07405534 22.56166066 55.63819152 20.1875 56.375 C17.68900497 57.07457861 15.61250128 57.44025653 13.0625 57.6875 C8.95189083 58.11851533 5.81542384 59.55750494 2.0625 61.25 C1.0725 61.25 0.0825 61.25 -0.9375 61.25 C-0.9375 61.91 -0.9375 62.57 -0.9375 63.25 C-1.5975 63.25 -2.2575 63.25 -2.9375 63.25 C-2.9375 63.91 -2.9375 64.57 -2.9375 65.25 C-8.35960294 68.35040461 -12.72230771 69.70480769 -18.9375 70.25 C-19.2675 70.58 -19.5975 70.91 -19.9375 71.25 C-24.43900795 71.47148327 -28.94645625 71.43578465 -33.45288086 71.43530273 C-35.7025139 71.43745458 -37.95162805 71.45550128 -40.20117188 71.47460938 C-60.33136099 71.55306951 -60.33136099 71.55306951 -66.9375 68.25 C-68.80806791 68.0224985 -70.68435958 67.84037189 -72.5625 67.6875 C-73.56539063 67.60371094 -74.56828125 67.51992187 -75.6015625 67.43359375 C-76.37242187 67.37300781 -77.14328125 67.31242187 -77.9375 67.25 C-77.9375 66.59 -77.9375 65.93 -77.9375 65.25 C-83.26346226 64.34345323 -88.53097171 63.85553227 -93.9375 64.25 C-94.2675 64.58 -94.5975 64.91 -94.9375 65.25 C-97.27047433 65.29092937 -99.60455225 65.29241723 -101.9375 65.25 C-101.9375 64.59 -101.9375 63.93 -101.9375 63.25 C-106.8875 63.58 -111.8375 63.91 -116.9375 64.25 C-116.9375 64.91 -116.9375 65.57 -116.9375 66.25 C-120.95827152 66.30843491 -124.97893259 66.3437424 -129 66.375 C-130.13373047 66.39175781 -131.26746094 66.40851563 -132.43554688 66.42578125 C-139.74037194 66.46837498 -145.52986456 66.35258357 -151.875 62.4375 C-155.14759096 57.37985943 -154.32354335 52.10928013 -153.9375 46.25 C-152.9475 46.25 -151.9575 46.25 -150.9375 46.25 C-150.9375 44.93 -150.9375 43.61 -150.9375 42.25 C-151.60394531 42.09144531 -152.27039063 41.93289062 -152.95703125 41.76953125 C-159.14083648 40.20412042 -164.70674891 38.1546983 -170.4296875 35.3359375 C-172.94043666 34.24872836 -175.24378908 33.6844695 -177.9375 33.25 C-177.9375 32.59 -177.9375 31.93 -177.9375 31.25 C-178.845 31.12625 -179.7525 31.0025 -180.6875 30.875 C-184.52914655 30.13622182 -186.95733706 29.49325931 -189.421875 26.3671875 C-192.43038759 21.03729174 -193.87288068 17.38194003 -192.9375 11.25 C-190.53093987 7.86298945 -187.88188344 6.43331503 -183.9375 5.25 C-182.6175 5.25 -181.2975 5.25 -179.9375 5.25 C-179.9375 4.59 -179.9375 3.93 -179.9375 3.25 C-176.28426113 0.93535247 -172.70468646 0.82760199 -168.5 0.8125 C-167.4018396 0.80778687 -167.4018396 0.80778687 -166.28149414 0.80297852 C-158.14905615 0.97210331 -150.53522223 2.97170135 -142.71484375 5.05859375 C-139.64453109 5.87280841 -136.67636223 6.46895165 -133.51953125 6.8203125 C-130.20594744 7.21779802 -127.99125832 8.06753101 -125.01171875 9.484375 C-120.52150592 11.14177936 -115.6595893 11.5909235 -110.9375 12.25 C-110.9375 12.91 -110.9375 13.57 -110.9375 14.25 C-109.761875 14.4046875 -109.761875 14.4046875 -108.5625 14.5625 C-101.09495949 15.97875768 -94.01229577 18.5239319 -86.9375 21.25 C-80.65831809 23.62889711 -74.49071701 25.76625275 -67.9375 27.25 C-67.9375 27.91 -67.9375 28.57 -67.9375 29.25 C-63.3175 29.25 -58.6975 29.25 -53.9375 29.25 C-53.6075 28.59 -53.2775 27.93 -52.9375 27.25 C-50.9575 27.25 -48.9775 27.25 -46.9375 27.25 C-46.9375 26.59 -46.9375 25.93 -46.9375 25.25 C-45.2359375 25.26740234 -45.2359375 25.26740234 -43.5 25.28515625 C-41.97916833 25.2945441 -40.45833486 25.30364322 -38.9375 25.3125 C-38.19371094 25.32087891 -37.44992188 25.32925781 -36.68359375 25.33789062 C-31.67601156 25.35966272 -26.89470968 24.96541549 -21.9375 24.25 C-21.6075 23.26 -21.2775 22.27 -20.9375 21.25 C-19.9475 20.755 -19.9475 20.755 -18.9375 20.25 C-18.51597656 19.54230469 -18.09445313 18.83460937 -17.66015625 18.10546875 C-15.55012378 14.60788659 -13.03569162 11.6497414 -10.375 8.5625 C-9.6334668 7.69141602 -9.6334668 7.69141602 -8.87695312 6.80273438 C-3.30547644 0.28131714 -3.30547644 0.28131714 0 0 Z " fill="#E6E7E7" transform="translate(205.9375,14.75)"/>
<path d="M0 0 C3.0625 0.25 3.0625 0.25 6.0625 2.25 C6.1187279 5.21528179 6.01933804 7.93850026 5.75 10.875 C5.68876953 11.67679688 5.62753906 12.47859375 5.56445312 13.3046875 C5.41101492 15.28758124 5.23854307 17.26898519 5.0625 19.25 C5.85914063 18.98445313 6.65578125 18.71890625 7.4765625 18.4453125 C10.671875 17.38020833 13.8671875 16.31510417 17.0625 15.25 C18.08601562 14.88777344 19.10953125 14.52554687 20.1640625 14.15234375 C22.79248344 13.33406176 25.08088723 12.90885483 27.8125 12.6875 C31.05920961 12.42267781 31.05920961 12.42267781 34.0625 11.25 C38.11392119 10.99139865 39.60587669 10.94558446 43.0625 13.25 C43.0625 13.91 43.0625 14.57 43.0625 15.25 C43.7225 15.25 44.3825 15.25 45.0625 15.25 C44.7325 16.24 44.4025 17.23 44.0625 18.25 C42.4125 18.25 40.7625 18.25 39.0625 18.25 C39.0625 18.91 39.0625 19.57 39.0625 20.25 C37.72445312 20.75660156 37.72445312 20.75660156 36.359375 21.2734375 C35.18890625 21.71945313 34.0184375 22.16546875 32.8125 22.625 C31.65234375 23.06585938 30.4921875 23.50671875 29.296875 23.9609375 C26.22437315 25.11107686 26.22437315 25.11107686 24.08984375 26.32421875 C20.03416084 28.1762358 15.4459729 28.58459551 11.08203125 29.37109375 C10.08558594 29.66113281 9.08914062 29.95117188 8.0625 30.25 C7.7325 31.24 7.4025 32.23 7.0625 33.25 C8.0525 33.58 9.0425 33.91 10.0625 34.25 C10.0625 34.58 10.0625 34.91 10.0625 35.25 C9.35222656 35.29898438 8.64195312 35.34796875 7.91015625 35.3984375 C6.99105469 35.47320312 6.07195312 35.54796875 5.125 35.625 C4.20847656 35.69460937 3.29195312 35.76421875 2.34765625 35.8359375 C1.59355469 35.97257812 0.83945313 36.10921875 0.0625 36.25 C-0.2675 36.91 -0.5975 37.57 -0.9375 38.25 C-2.195625 38.085 -3.45375 37.92 -4.75 37.75 C-7.20206585 37.42841759 -9.45400694 37.25 -11.9375 37.25 C-11.9375 37.91 -11.9375 38.57 -11.9375 39.25 C-10.9475 39.25 -9.9575 39.25 -8.9375 39.25 C-8.9375 39.91 -8.9375 40.57 -8.9375 41.25 C-7.6175 41.58 -6.2975 41.91 -4.9375 42.25 C-6.83325251 42.27721176 -8.72911979 42.29649136 -10.625 42.3125 C-12.20861328 42.32990234 -12.20861328 42.32990234 -13.82421875 42.34765625 C-16.66160262 42.25865425 -19.1813919 41.89939838 -21.9375 41.25 C-22.30875 42.178125 -22.30875 42.178125 -22.6875 43.125 C-24.19570443 45.68894754 -25.21319994 46.14842736 -27.9375 47.25 C-30.01731873 47.52415466 -30.01731873 47.52415466 -32.25952148 47.55639648 C-33.10397324 47.57238388 -33.94842499 47.58837128 -34.81846619 47.60484314 C-35.72270828 47.61020584 -36.62695038 47.61556854 -37.55859375 47.62109375 C-38.49550552 47.63012222 -39.4324173 47.6391507 -40.39772034 47.64845276 C-42.37717497 47.66294524 -44.35667741 47.67183951 -46.33618164 47.67553711 C-49.36100967 47.68744492 -52.38380478 47.7366494 -55.40820312 47.78710938 C-57.33332339 47.7965727 -59.25845617 47.80380817 -61.18359375 47.80859375 C-62.08581161 47.82812607 -62.98802948 47.84765839 -63.91758728 47.86778259 C-68.45186415 47.83526964 -70.33641805 47.71547316 -74.03027344 44.85498047 C-75.9375 42.25 -75.9375 42.25 -76.20703125 40.01171875 C-75.78385417 38.09114583 -75.36067708 36.17057292 -74.9375 34.25 C-75.989375 34.064375 -75.989375 34.064375 -77.0625 33.875 C-79.9375 33.25 -79.9375 33.25 -82.6875 32.25 C-86.74754846 31.00075432 -90.71834457 30.60628424 -94.9375 30.25 C-94.9375 29.26 -94.9375 28.27 -94.9375 27.25 C-95.91589844 27.17652344 -95.91589844 27.17652344 -96.9140625 27.1015625 C-101.87029853 26.67757771 -106.26769451 26.09334427 -110.9375 24.25 C-110.9375 23.59 -110.9375 22.93 -110.9375 22.25 C-114.2375 22.25 -117.5375 22.25 -120.9375 22.25 C-120.9375 21.59 -120.9375 20.93 -120.9375 20.25 C-121.659375 20.1159375 -122.38125 19.981875 -123.125 19.84375 C-126.639965 19.10170183 -130.01125391 18.0394519 -133.4375 16.96875 C-135.92262275 16.25427721 -138.3962474 15.72194691 -140.9375 15.25 C-140.9375 13.27 -140.9375 11.29 -140.9375 9.25 C-142.2575 9.25 -143.5775 9.25 -144.9375 9.25 C-144.9375 8.59 -144.9375 7.93 -144.9375 7.25 C-152.8575 7.25 -160.7775 7.25 -168.9375 7.25 C-168.9375 7.91 -168.9375 8.57 -168.9375 9.25 C-173.7708472 9.33333357 -178.17442563 9.20261487 -182.9375 8.25 C-182.6075 7.26 -182.2775 6.27 -181.9375 5.25 C-181.2775 5.25 -180.6175 5.25 -179.9375 5.25 C-179.9375 4.59 -179.9375 3.93 -179.9375 3.25 C-176.28426113 0.93535247 -172.70468646 0.82760199 -168.5 0.8125 C-167.76789307 0.80935791 -167.03578613 0.80621582 -166.28149414 0.80297852 C-158.14905615 0.97210331 -150.53522223 2.97170135 -142.71484375 5.05859375 C-139.64453109 5.87280841 -136.67636223 6.46895165 -133.51953125 6.8203125 C-130.20594744 7.21779802 -127.99125832 8.06753101 -125.01171875 9.484375 C-120.52150592 11.14177936 -115.6595893 11.5909235 -110.9375 12.25 C-110.9375 12.91 -110.9375 13.57 -110.9375 14.25 C-109.761875 14.4046875 -109.761875 14.4046875 -108.5625 14.5625 C-101.09495949 15.97875768 -94.01229577 18.5239319 -86.9375 21.25 C-80.65831809 23.62889711 -74.49071701 25.76625275 -67.9375 27.25 C-67.9375 27.91 -67.9375 28.57 -67.9375 29.25 C-63.3175 29.25 -58.6975 29.25 -53.9375 29.25 C-53.6075 28.59 -53.2775 27.93 -52.9375 27.25 C-50.9575 27.25 -48.9775 27.25 -46.9375 27.25 C-46.9375 26.59 -46.9375 25.93 -46.9375 25.25 C-45.2359375 25.26740234 -45.2359375 25.26740234 -43.5 25.28515625 C-41.97916833 25.2945441 -40.45833486 25.30364322 -38.9375 25.3125 C-38.19371094 25.32087891 -37.44992188 25.32925781 -36.68359375 25.33789062 C-31.67601156 25.35966272 -26.89470968 24.96541549 -21.9375 24.25 C-21.6075 23.26 -21.2775 22.27 -20.9375 21.25 C-19.9475 20.755 -19.9475 20.755 -18.9375 20.25 C-18.51597656 19.54230469 -18.09445313 18.83460937 -17.66015625 18.10546875 C-15.55012378 14.60788659 -13.03569162 11.6497414 -10.375 8.5625 C-9.6334668 7.69141602 -9.6334668 7.69141602 -8.87695312 6.80273438 C-3.30547644 0.28131714 -3.30547644 0.28131714 0 0 Z " fill="#468BC6" transform="translate(205.9375,14.75)"/>
<path d="M0 0 C5.50808397 0.59015185 10.64878069 1.56663769 16 3 C16 3.66 16 4.32 16 5 C16.66 5 17.32 5 18 5 C18.33 5.66 18.66 6.32 19 7 C19.99 7.33 20.98 7.66 22 8 C22 8.66 22 9.32 22 10 C23.051875 9.938125 23.051875 9.938125 24.125 9.875 C27.45436718 10.01975509 29.84830041 10.89106866 33 12 C36.65715231 13.03551964 40.32766142 14.01983846 44 15 C44 15.66 44 16.32 44 17 C45.4540625 16.9690625 45.4540625 16.9690625 46.9375 16.9375 C50 17 50 17 51 18 C53.03667627 18.32468752 55.07977297 18.6094466 57.125 18.875 C62.25117999 19.62082858 66.25137126 20.9278711 71 23 C78.64320313 24.73981861 86.51480496 25.46633159 94.30029297 26.30297852 C97.35218934 26.63882131 100.07677072 27.02559024 103 28 C104.37392757 28.09538911 105.75193439 28.13804333 107.12915039 28.14526367 C108.37173363 28.15483345 108.37173363 28.15483345 109.63941956 28.16459656 C110.53313766 28.16570938 111.42685577 28.1668222 112.34765625 28.16796875 C113.73735878 28.17296135 113.73735878 28.17296135 115.15513611 28.17805481 C117.11961369 28.18312053 119.08409988 28.18546324 121.04858398 28.18530273 C124.02667865 28.18747388 127.00439351 28.2055907 129.98242188 28.22460938 C131.89583208 28.22754659 133.80924403 28.22952919 135.72265625 28.23046875 C137.04197899 28.24124702 137.04197899 28.24124702 138.38795471 28.25224304 C144.46422712 28.23026132 150.08818168 27.39006592 156 26 C156 25.01 156 24.02 156 23 C155.34 23 154.68 23 154 23 C154 22.34 154 21.68 154 21 C153.01 20.67 152.02 20.34 151 20 C151.99 18.515 151.99 18.515 153 17 C155.32817964 16.63239269 157.6618385 16.29758419 160 16 C160.33 15.34 160.66 14.68 161 14 C164.63 14 168.26 14 172 14 C172 13.34 172 12.68 172 12 C174.64 12 177.28 12 180 12 C180 11.34 180 10.68 180 10 C181.58941406 9.90912109 181.58941406 9.90912109 183.2109375 9.81640625 C184.59897221 9.73199873 185.98699232 9.64735083 187.375 9.5625 C188.42300781 9.50352539 188.42300781 9.50352539 189.4921875 9.44335938 C193.37360492 9.25719866 193.37360492 9.25719866 197 8 C199.6723621 7.86584528 202.32250488 7.95681459 205 8 C205 8.66 205 9.32 205 10 C203.62667716 10.62867668 202.25124167 11.25273891 200.875 11.875 C200.10929688 12.22304687 199.34359375 12.57109375 198.5546875 12.9296875 C195.74218875 14.10801267 192.89948312 15.05692832 190 16 C188.54980469 16.51240234 188.54980469 16.51240234 187.0703125 17.03515625 C178.15651114 20.14434691 178.15651114 20.14434691 173.6875 20.5625 C169.52825759 21.05596944 166.79144899 22.29013085 163 24 C162.01 24 161.02 24 160 24 C160 24.66 160 25.32 160 26 C159.34 26 158.68 26 158 26 C158 26.66 158 27.32 158 28 C152.57789706 31.10040461 148.21519229 32.45480769 142 33 C141.67 33.33 141.34 33.66 141 34 C136.49849205 34.22148327 131.99104375 34.18578465 127.48461914 34.18530273 C125.2349861 34.18745458 122.98587195 34.20550128 120.73632812 34.22460938 C100.60613901 34.30306951 100.60613901 34.30306951 94 31 C92.12943209 30.7724985 90.25314042 30.59037189 88.375 30.4375 C87.37210937 30.35371094 86.36921875 30.26992187 85.3359375 30.18359375 C84.56507813 30.12300781 83.79421875 30.06242187 83 30 C83 29.34 83 28.68 83 28 C77.67403774 27.09345323 72.40652829 26.60553227 67 27 C66.505 27.495 66.505 27.495 66 28 C63.66702567 28.04092937 61.33294775 28.04241723 59 28 C59 27.34 59 26.68 59 26 C54.05 26.33 49.1 26.66 44 27 C44 27.66 44 28.32 44 29 C39.97922848 29.05843491 35.95856741 29.0937424 31.9375 29.125 C30.2369043 29.15013672 30.2369043 29.15013672 28.50195312 29.17578125 C21.19712806 29.21837498 15.40763544 29.10258357 9.0625 25.1875 C5.78990904 20.12985943 6.61395665 14.85928013 7 9 C7.99 9 8.98 9 10 9 C10 7.68 10 6.36 10 5 C9.04287109 4.70996094 9.04287109 4.70996094 8.06640625 4.4140625 C6.82697266 4.02347656 6.82697266 4.02347656 5.5625 3.625 C4.73878906 3.36976562 3.91507813 3.11453125 3.06640625 2.8515625 C1 2 1 2 0 0 Z " fill="#BACDE1" transform="translate(45,52)"/>
<path d="M0 0 C0.7734375 0.495 0.7734375 0.495 1.5625 1 C1.2325 1.99 0.9025 2.98 0.5625 4 C-1.0875 4 -2.7375 4 -4.4375 4 C-4.4375 4.66 -4.4375 5.32 -4.4375 6 C-5.77554688 6.50660156 -5.77554688 6.50660156 -7.140625 7.0234375 C-8.31109375 7.46945313 -9.4815625 7.91546875 -10.6875 8.375 C-11.84765625 8.81585938 -13.0078125 9.25671875 -14.203125 9.7109375 C-17.27562685 10.86107686 -17.27562685 10.86107686 -19.41015625 12.07421875 C-23.46583916 13.9262358 -28.0540271 14.33459551 -32.41796875 15.12109375 C-33.41441406 15.41113281 -34.41085938 15.70117188 -35.4375 16 C-35.9325 17.485 -35.9325 17.485 -36.4375 19 C-35.4475 19.33 -34.4575 19.66 -33.4375 20 C-33.4375 20.33 -33.4375 20.66 -33.4375 21 C-34.50291016 21.07347656 -34.50291016 21.07347656 -35.58984375 21.1484375 C-36.50894531 21.22320312 -37.42804688 21.29796875 -38.375 21.375 C-39.74978516 21.47941406 -39.74978516 21.47941406 -41.15234375 21.5859375 C-41.90644531 21.72257812 -42.66054687 21.85921875 -43.4375 22 C-43.7675 22.66 -44.0975 23.32 -44.4375 24 C-45.695625 23.835 -46.95375 23.67 -48.25 23.5 C-50.70206585 23.17841759 -52.95400694 23 -55.4375 23 C-55.4375 23.66 -55.4375 24.32 -55.4375 25 C-54.4475 25 -53.4575 25 -52.4375 25 C-52.4375 25.66 -52.4375 26.32 -52.4375 27 C-51.1175 27.33 -49.7975 27.66 -48.4375 28 C-50.33325251 28.02721176 -52.22911979 28.04649136 -54.125 28.0625 C-55.70861328 28.07990234 -55.70861328 28.07990234 -57.32421875 28.09765625 C-60.16160262 28.00865425 -62.6813919 27.64939838 -65.4375 27 C-65.7675 27.99 -66.0975 28.98 -66.4375 30 C-71.57441161 31.99186369 -75.96200293 32.1921227 -81.4375 32 C-78.1696794 29.82145293 -75.05691735 28.50239966 -71.4375 27 C-71.7675 26.01 -72.0975 25.02 -72.4375 24 C-74.81816801 23.12012394 -77.05231901 22.42741106 -79.5 21.8125 C-80.49483398 21.54663086 -80.49483398 21.54663086 -81.50976562 21.27539062 C-83.14937426 20.83894804 -84.79309238 20.41799781 -86.4375 20 C-86.4375 18.02 -86.4375 16.04 -86.4375 14 C-85.73625 14.01160156 -85.035 14.02320313 -84.3125 14.03515625 C-78.5822199 14.0896562 -73.09506206 13.94292701 -67.4375 13 C-67.1075 12.67 -66.7775 12.34 -66.4375 12 C-64.69656779 11.59665902 -62.94378023 11.24422709 -61.1875 10.9140625 C-60.10339844 10.70523438 -59.01929688 10.49640625 -57.90234375 10.28125 C-55.62404343 9.84973427 -53.34540578 9.41999506 -51.06640625 8.9921875 C-45.30102626 7.87849808 -39.76420214 6.62575847 -34.23608398 4.63110352 C-28.44221936 2.59809957 -22.48977041 2.89235092 -16.4375 3 C-16.4375 2.34 -16.4375 1.68 -16.4375 1 C-10.92355289 -0.80047253 -5.62342008 -2.30704414 0 0 Z " fill="#3A75B7" transform="translate(249.4375,29)"/>
<path d="M0 0 C0.73210693 -0.00314209 1.46421387 -0.00628418 2.21850586 -0.00952148 C10.35094385 0.15960331 17.96477777 2.15920135 25.78515625 4.24609375 C28.85546891 5.06030841 31.82363777 5.65645165 34.98046875 6.0078125 C38.29405256 6.40529802 40.50874168 7.25503101 43.48828125 8.671875 C47.97849408 10.32927936 52.8404107 10.7784235 57.5625 11.4375 C57.5625 12.0975 57.5625 12.7575 57.5625 13.4375 C58.738125 13.5921875 58.738125 13.5921875 59.9375 13.75 C66.63859335 15.02089701 73.07332437 17.15999991 79.42578125 19.62109375 C81.99796902 20.60388579 84.59257836 21.51649542 87.1875 22.4375 C91.14665562 23.86918353 94.86111156 25.43674949 98.5625 27.4375 C98.5625 28.4275 98.5625 29.4175 98.5625 30.4375 C99.8825 30.4375 101.2025 30.4375 102.5625 30.4375 C102.5625 31.0975 102.5625 31.7575 102.5625 32.4375 C96.8125 32.5625 96.8125 32.5625 94.5625 31.4375 C95.0575 36.8825 95.0575 36.8825 95.5625 42.4375 C101.84975959 44.63135228 107.87789778 44.86519342 114.5 45.0625 C116.09811523 45.12050781 116.09811523 45.12050781 117.72851562 45.1796875 C120.33967734 45.27336146 122.95084304 45.35908335 125.5625 45.4375 C125.5625 45.7675 125.5625 46.0975 125.5625 46.4375 C121.00033535 46.58282035 116.43876638 46.67158477 111.875 46.75 C110.58142578 46.79189453 109.28785156 46.83378906 107.95507812 46.87695312 C106.70791016 46.89306641 105.46074219 46.90917969 104.17578125 46.92578125 C102.45548706 46.96505737 102.45548706 46.96505737 100.70043945 47.00512695 C96.60737824 46.26472648 95.13418442 44.62763034 92.5625 41.4375 C92.20694503 38.48484785 92.91085149 36.39498169 93.5625 33.4375 C92.510625 33.251875 92.510625 33.251875 91.4375 33.0625 C88.5625 32.4375 88.5625 32.4375 85.8125 31.4375 C81.75245154 30.18825432 77.78165543 29.79378424 73.5625 29.4375 C73.5625 28.4475 73.5625 27.4575 73.5625 26.4375 C72.58410156 26.36402344 72.58410156 26.36402344 71.5859375 26.2890625 C66.62970147 25.86507771 62.23230549 25.28084427 57.5625 23.4375 C57.5625 22.7775 57.5625 22.1175 57.5625 21.4375 C54.2625 21.4375 50.9625 21.4375 47.5625 21.4375 C47.5625 20.7775 47.5625 20.1175 47.5625 19.4375 C46.840625 19.3034375 46.11875 19.169375 45.375 19.03125 C41.860035 18.28920183 38.48874609 17.2269519 35.0625 16.15625 C32.57737725 15.44177721 30.1037526 14.90944691 27.5625 14.4375 C27.5625 12.4575 27.5625 10.4775 27.5625 8.4375 C26.2425 8.4375 24.9225 8.4375 23.5625 8.4375 C23.5625 7.7775 23.5625 7.1175 23.5625 6.4375 C15.6425 6.4375 7.7225 6.4375 -0.4375 6.4375 C-0.4375 7.0975 -0.4375 7.7575 -0.4375 8.4375 C-5.2708472 8.52083357 -9.67442563 8.39011487 -14.4375 7.4375 C-14.1075 6.4475 -13.7775 5.4575 -13.4375 4.4375 C-12.7775 4.4375 -12.1175 4.4375 -11.4375 4.4375 C-11.4375 3.7775 -11.4375 3.1175 -11.4375 2.4375 C-7.78426113 0.12285247 -4.20468646 0.01510199 0 0 Z " fill="#C7D3DE" transform="translate(37.4375,15.5625)"/>
<path d="M0 0 C1.16917969 0.3609375 2.33835938 0.721875 3.54296875 1.09375 C5.09103636 1.5628614 6.6392196 2.03159137 8.1875 2.5 C8.95642578 2.73847656 9.72535156 2.97695313 10.51757812 3.22265625 C14.50255723 4.41986027 17.80889916 5.13592759 22 5 C24.3627974 5.92824183 26.69747517 6.93097061 29 8 C32.98493859 9.79322236 36.65774349 10.48914629 41 11 C41 11.66 41 12.32 41 13 C42.05960938 13.20496094 42.05960938 13.20496094 43.140625 13.4140625 C49.72824482 14.76398459 56.27550886 16.33678869 62.625 18.5625 C65.77403372 19.66352085 68.84299381 20.40192357 72.125 21 C76.40651966 21.79165233 80.00235237 23.25557194 84 25 C89.34779243 26.52229212 94.71863231 27.28335587 100.25 27.75390625 C102 28 102 28 103 29 C105.20437055 29.21275426 107.41422395 29.36968057 109.625 29.5 C114.46828993 29.81278563 119.20015231 30.27549469 124 31 C127.66396709 31.36539563 131.33111803 31.6881782 135 32 C134.67 32.66 134.34 33.32 134 34 C115.60343437 34.43054852 97.18984894 34.13665613 79 31 C78.67 30.67 78.34 30.34 78 30 C74.48483176 29.33996305 70.96525216 28.7561616 67.43359375 28.19335938 C63.35152127 27.51301396 59.82916521 26.61463133 56 25 C53.92376281 24.51052439 51.83956724 24.05401743 49.75 23.625 C44.82151502 22.52792481 40.48491098 21.10401156 35.9453125 18.91796875 C33.37105786 17.70321004 30.71740712 16.83612527 28 16 C28 15.34 28 14.68 28 14 C26.96552734 13.87044922 26.96552734 13.87044922 25.91015625 13.73828125 C19.83797893 12.83036996 15.3724282 11.37241094 10.1484375 8.17578125 C6.87535032 6.3845099 3.64411896 5.72882379 0 5 C-0.5625 3.0625 -0.5625 3.0625 -1 1 C-0.67 0.67 -0.34 0.34 0 0 Z " fill="#F9F9FA" transform="translate(50,46)"/>
<path d="M0 0 C0 0.66 0 1.32 0 2 C0.66 2 1.32 2 2 2 C2.25 9.625 2.25 9.625 0 13 C-0.99 13 -1.98 13 -3 13 C-3 10.36 -3 7.72 -3 5 C-4.32 5 -5.64 5 -7 5 C-7 5.66 -7 6.32 -7 7 C-7.99 7 -8.98 7 -10 7 C-9.73343428 9.93443402 -9.73343428 9.93443402 -9 13 C-8.01 13.66 -7.02 14.32 -6 15 C-6 15.66 -6 16.32 -6 17 C-5.195625 17.309375 -4.39125 17.61875 -3.5625 17.9375 C-1 19 -1 19 0 20 C0.07179964 21.51928038 0.08392007 23.04167482 0.0625 24.5625 C0.05347656 25.38878906 0.04445313 26.21507813 0.03515625 27.06640625 C0.02355469 27.70449219 0.01195312 28.34257813 0 29 C-1.32 29.66 -2.64 30.32 -4 31 C-4 31.66 -4 32.32 -4 33 C-5.41623216 33.05447047 -6.83308191 33.09300508 -8.25 33.125 C-9.03890625 33.14820313 -9.8278125 33.17140625 -10.640625 33.1953125 C-13.20731941 32.9828378 -14.7916067 32.28654105 -17 31 C-17.13921875 31.93779297 -17.13921875 31.93779297 -17.28125 32.89453125 C-17.5184375 33.58933594 -17.755625 34.28414062 -18 35 C-23.58376131 37.69217063 -28.85225618 38.58730423 -35 39 C-34 37 -34 37 -31.85546875 36.18359375 C-30.97503906 35.93738281 -30.09460938 35.69117188 -29.1875 35.4375 C-28.31480469 35.18871094 -27.44210938 34.93992188 -26.54296875 34.68359375 C-24.36701419 34.09865973 -22.18853624 33.53565572 -20 33 C-20 32.34 -20 31.68 -20 31 C-20.54785156 31.144375 -21.09570312 31.28875 -21.66015625 31.4375 C-29.5055418 33.27446832 -36.98570553 33.19234307 -45 33 C-45 33.66 -45 34.32 -45 35 C-47.64 35 -50.28 35 -53 35 C-53 35.66 -53 36.32 -53 37 C-56.63 37 -60.26 37 -64 37 C-64.33 37.99 -64.66 38.98 -65 40 C-67.64 40.33 -70.28 40.66 -73 41 C-73 40.34 -73 39.68 -73 39 C-71.02 38.505 -71.02 38.505 -69 38 C-68.34 34.7 -67.68 31.4 -67 28 C-68.98 27.67 -70.96 27.34 -73 27 C-73 26.34 -73 25.68 -73 25 C-73.99 25 -74.98 25 -76 25 C-76 24.34 -76 23.68 -76 23 C-69.6 21.76923077 -69.6 21.76923077 -66.5625 22.9375 C-65.7890625 23.4634375 -65.7890625 23.4634375 -65 24 C-64.67 23.01 -64.34 22.02 -64 21 C-61.03 20.67 -58.06 20.34 -55 20 C-55.66 19.67 -56.32 19.34 -57 19 C-56.67 17.68 -56.34 16.36 -56 15 C-54.4221875 14.7834375 -54.4221875 14.7834375 -52.8125 14.5625 C-49.84539451 14.12473034 -46.93205634 13.62195134 -44 13 C-46.9826887 15.54080889 -49.19551307 16.2802322 -53 17 C-53.33 17.66 -53.66 18.32 -54 19 C-52.68 19.66 -51.36 20.32 -50 21 C-50 21.66 -50 22.32 -50 23 C-54.29 23 -58.58 23 -63 23 C-63.66 26.63 -64.32 30.26 -65 34 C-62.89551062 33.85890014 -60.7914123 33.71195825 -58.6875 33.5625 C-57.51574219 33.48128906 -56.34398437 33.40007813 -55.13671875 33.31640625 C-51.97409042 33.1132629 -51.97409042 33.1132629 -49 32 C-47.0228489 31.84637963 -45.04304524 31.72582776 -43.0625 31.625 C-37.37915877 31.2380761 -32.21586553 30.20878428 -26.75390625 28.62109375 C-23.7589738 27.9456409 -21.06026249 27.89633868 -18 28 C-18 26.02 -18 24.04 -18 22 C-16.35 21.67 -14.7 21.34 -13 21 C-13 23.97 -13 26.94 -13 30 C-9.04 29.505 -9.04 29.505 -5 29 C-4.02066187 25.47583785 -4.02066187 25.47583785 -4.71875 21.96875 C-6.26595848 19.5913321 -7.56038376 18.90821378 -10.125 17.75 C-11.21167969 17.24726562 -11.21167969 17.24726562 -12.3203125 16.734375 C-13.15175781 16.37085938 -13.15175781 16.37085938 -14 16 C-14.42014232 9.90793639 -14.06715472 6.88058567 -10 2 C-6.3558226 -0.4294516 -4.28758728 -0.16179575 0 0 Z " fill="#ADC6E1" transform="translate(270,29)"/>
<path d="M0 0 C2.76276177 0.52268466 5.3260876 1.10869587 8 2 C8 2.66 8 3.32 8 4 C9.051875 3.938125 9.051875 3.938125 10.125 3.875 C13.45436718 4.01975509 15.84830041 4.89106866 19 6 C22.65715231 7.03551964 26.32766142 8.01983846 30 9 C30 9.66 30 10.32 30 11 C31.3303125 10.938125 31.3303125 10.938125 32.6875 10.875 C35.97277013 10.99897246 38.05449295 11.61387904 41 13 C41 13.66 41 14.32 41 15 C42.299375 14.938125 42.299375 14.938125 43.625 14.875 C47.12358468 15.00457721 49.74551597 15.76019656 53 17 C53 17.66 53 18.32 53 19 C52.25314941 19.02505615 51.50629883 19.0501123 50.73681641 19.07592773 C47.36602733 19.19168213 43.99553217 19.31450128 40.625 19.4375 C39.449375 19.47681641 38.27375 19.51613281 37.0625 19.55664062 C35.94101563 19.59853516 34.81953125 19.64042969 33.6640625 19.68359375 C32.62717285 19.72025146 31.5902832 19.75690918 30.52197266 19.79467773 C28.00574834 19.84164223 28.00574834 19.84164223 26 21 C24.0406396 21.08510205 22.07837206 21.10717656 20.1171875 21.09765625 C18.95058594 21.09443359 17.78398438 21.09121094 16.58203125 21.08789062 C15.35871094 21.07951172 14.13539062 21.07113281 12.875 21.0625 C11.64394531 21.05798828 10.41289063 21.05347656 9.14453125 21.04882812 C6.09630608 21.0370133 3.04817686 21.02054028 0 21 C-0.33 20.01 -0.66 19.02 -1 18 C-0.34 18 0.32 18 1 18 C1 17.34 1 16.68 1 16 C1.66 16 2.32 16 3 16 C2.57910004 10.39538469 2.08386889 5.27913453 0 0 Z " fill="#3775B7" transform="translate(59,58)"/>
<path d="M0 0 C3.0625 0.25 3.0625 0.25 6.0625 2.25 C6.1187279 5.21528179 6.01933804 7.93850026 5.75 10.875 C5.68876953 11.67679688 5.62753906 12.47859375 5.56445312 13.3046875 C5.41101492 15.28758124 5.23854307 17.26898519 5.0625 19.25 C5.85914063 18.98445313 6.65578125 18.71890625 7.4765625 18.4453125 C10.671875 17.38020833 13.8671875 16.31510417 17.0625 15.25 C18.59777344 14.70666016 18.59777344 14.70666016 20.1640625 14.15234375 C22.79248344 13.33406176 25.08088723 12.90885483 27.8125 12.6875 C31.05920961 12.42267781 31.05920961 12.42267781 34.0625 11.25 C37 11 37 11 40.0625 11.25 C41.75390625 12.765625 41.75390625 12.765625 43.0625 14.25 C42.42441406 14.23839844 41.78632813 14.22679687 41.12890625 14.21484375 C40.30261719 14.20582031 39.47632813 14.19679688 38.625 14.1875 C37.80128906 14.17589844 36.97757812 14.16429687 36.12890625 14.15234375 C34.07086062 14.01732652 34.07086062 14.01732652 33.0625 15.25 C31.06291636 15.29080783 29.06204746 15.29254356 27.0625 15.25 C27.0625 15.91 27.0625 16.57 27.0625 17.25 C25.57363281 17.39695312 25.57363281 17.39695312 24.0546875 17.546875 C15.89869534 18.4193953 8.31761584 19.83143958 0.4453125 22.234375 C-13.54373879 26.43432111 -26.47099848 27.40975278 -40.9375 27.25 C-40.9375 26.92 -40.9375 26.59 -40.9375 26.25 C-40.23625 26.18941406 -39.535 26.12882812 -38.8125 26.06640625 C-33.16932765 25.56802826 -27.55385883 24.99178324 -21.9375 24.25 C-21.6075 23.26 -21.2775 22.27 -20.9375 21.25 C-20.2775 20.92 -19.6175 20.59 -18.9375 20.25 C-18.51597656 19.54230469 -18.09445313 18.83460937 -17.66015625 18.10546875 C-15.55012378 14.60788659 -13.03569162 11.6497414 -10.375 8.5625 C-9.88064453 7.98177734 -9.38628906 7.40105469 -8.87695312 6.80273438 C-3.30547644 0.28131714 -3.30547644 0.28131714 0 0 Z " fill="#9BBADB" transform="translate(205.9375,14.75)"/>
<path d="M0 0 C0.73210693 -0.00314209 1.46421387 -0.00628418 2.21850586 -0.00952148 C10.35094385 0.15960331 17.96477777 2.15920135 25.78515625 4.24609375 C28.85009341 5.05855705 31.8137421 5.65596238 34.96484375 6.0078125 C38.97585482 6.4868692 41.88691922 7.79661572 45.5625 9.4375 C46.99325698 9.81799275 48.43125235 10.17223026 49.875 10.5 C53.5625 11.4375 53.5625 11.4375 55.5625 13.4375 C48.6325 12.9425 48.6325 12.9425 41.5625 12.4375 C41.5625 13.0975 41.5625 13.7575 41.5625 14.4375 C43.2125 14.4375 44.8625 14.4375 46.5625 14.4375 C46.5625 16.0875 46.5625 17.7375 46.5625 19.4375 C42.68809792 18.50692768 38.90322096 17.3326224 35.09765625 16.15625 C32.60023655 15.44819881 30.11356359 14.91211648 27.5625 14.4375 C27.5625 12.4575 27.5625 10.4775 27.5625 8.4375 C26.2425 8.4375 24.9225 8.4375 23.5625 8.4375 C23.5625 7.7775 23.5625 7.1175 23.5625 6.4375 C15.6425 6.4375 7.7225 6.4375 -0.4375 6.4375 C-0.4375 7.0975 -0.4375 7.7575 -0.4375 8.4375 C-5.2708472 8.52083357 -9.67442563 8.39011487 -14.4375 7.4375 C-14.1075 6.4475 -13.7775 5.4575 -13.4375 4.4375 C-12.7775 4.4375 -12.1175 4.4375 -11.4375 4.4375 C-11.4375 3.7775 -11.4375 3.1175 -11.4375 2.4375 C-7.78426113 0.12285247 -4.20468646 0.01510199 0 0 Z " fill="#8EAFD2" transform="translate(37.4375,15.5625)"/>
<path d="M0 0 C5.50808397 0.59015185 10.64878069 1.56663769 16 3 C16 3.66 16 4.32 16 5 C16.66 5.33 17.32 5.66 18 6 C16.68 6 15.36 6 14 6 C14.495 6.78375 14.99 7.5675 15.5 8.375 C17.43415935 13.04921842 17.26602877 17.01442381 17 22 C16.34 22 15.68 22 15 22 C15 22.66 15 23.32 15 24 C14.34 24 13.68 24 13 24 C13.33 24.66 13.66 25.32 14 26 C18.29165262 26.02891949 22.58328036 26.04677118 26.875 26.0625 C28.09832031 26.07087891 29.32164063 26.07925781 30.58203125 26.08789062 C31.74863281 26.09111328 32.91523437 26.09433594 34.1171875 26.09765625 C35.19597168 26.10289307 36.27475586 26.10812988 37.38623047 26.11352539 C39.98232186 26.17883106 39.98232186 26.17883106 42 25 C43.8863912 24.915085 45.77578515 24.892807 47.6640625 24.90234375 C48.78554687 24.90556641 49.90703125 24.90878906 51.0625 24.91210938 C52.238125 24.92048828 53.41375 24.92886719 54.625 24.9375 C55.80835938 24.94201172 56.99171875 24.94652344 58.2109375 24.95117188 C61.14067507 24.96298533 64.07031272 24.97945742 67 25 C67 24.34 67 23.68 67 23 C66.319375 23.04125 65.63875 23.0825 64.9375 23.125 C61.40075832 22.97450035 58.36676967 22.05624147 55 21 C55 20.34 55 19.68 55 19 C60.15871047 19.33923493 64.27063651 19.96999677 68.98046875 22.2421875 C72.5675542 23.58821183 76.35163201 23.95704073 80.1328125 24.47265625 C82.98243332 24.99676907 85.32710831 25.9091125 88 27 C90.66572015 27.49313497 93.29815717 27.72523632 96 28 C96 28.33 96 28.66 96 29 C80.49230769 29.24615385 80.49230769 29.24615385 76 27 C74.48154798 26.90527088 72.95889616 26.8701159 71.4375 26.875 C70.63183594 26.87242188 69.82617188 26.86984375 68.99609375 26.8671875 C67.00057979 26.77988609 67.00057979 26.77988609 66 28 C63.66702567 28.04092937 61.33294775 28.04241723 59 28 C59 27.34 59 26.68 59 26 C54.05 26.33 49.1 26.66 44 27 C44 27.66 44 28.32 44 29 C39.97922848 29.05843491 35.95856741 29.0937424 31.9375 29.125 C30.2369043 29.15013672 30.2369043 29.15013672 28.50195312 29.17578125 C21.19712806 29.21837498 15.40763544 29.10258357 9.0625 25.1875 C5.78990904 20.12985943 6.61395665 14.85928013 7 9 C7.99 9 8.98 9 10 9 C10 7.68 10 6.36 10 5 C9.04287109 4.70996094 9.04287109 4.70996094 8.06640625 4.4140625 C6.82697266 4.02347656 6.82697266 4.02347656 5.5625 3.625 C4.73878906 3.36976562 3.91507813 3.11453125 3.06640625 2.8515625 C1 2 1 2 0 0 Z " fill="#B6CBDE" transform="translate(45,52)"/>
<path d="M0 0 C1.65 0 3.3 0 5 0 C5.66 5.28 6.32 10.56 7 16 C5.68 16.33 4.36 16.66 3 17 C2.34 14.69 1.68 12.38 1 10 C0.72027344 10.5775 0.44054687 11.155 0.15234375 11.75 C-1.08969005 14.05035841 -2.26903349 16.0365156 -4 18 C-7.6875 18.5 -7.6875 18.5 -11 18 C-12.59509513 18 -14.19018818 18.01502341 -15.78515625 18.03515625 C-16.86667969 18.04417969 -17.94820313 18.05320312 -19.0625 18.0625 C-20.14660156 18.07410156 -21.23070312 18.08570312 -22.34765625 18.09765625 C-25 18 -25 18 -26 17 C-26.23363881 15.15108054 -26.41303635 13.29511969 -26.5625 11.4375 C-26.68818359 9.91962891 -26.68818359 9.91962891 -26.81640625 8.37109375 C-26.87699219 7.58863281 -26.93757813 6.80617188 -27 6 C-25.35 6 -23.7 6 -22 6 C-22.33 8.97 -22.66 11.94 -23 15 C-18.67137075 13.41883524 -18.67137075 13.41883524 -17.75 9.375 C-17.37875 7.704375 -17.37875 7.704375 -17 6 C-16.34 6 -15.68 6 -15 6 C-15 5.34 -15 4.68 -15 4 C-14.34 4 -13.68 4 -13 4 C-13 3.34 -13 2.68 -13 2 C-10.36 2 -7.72 2 -5 2 C-3.64560332 4.70879335 -3.93498549 7.00933268 -4 10 C-3.34 10 -2.68 10 -2 10 C-2 8.68 -2 7.36 -2 6 C-1.34 6 -0.68 6 0 6 C0 4.02 0 2.04 0 0 Z " fill="#ECF2F8" transform="translate(316,42)"/>
<path d="M0 0 C1.65 0 3.3 0 5 0 C5.66 5.28 6.32 10.56 7 16 C5.68 16.33 4.36 16.66 3 17 C1.25 15.5625 1.25 15.5625 0 14 C-0.99 14.33 -1.98 14.66 -3 15 C-3.33 15.99 -3.66 16.98 -4 18 C-8.95 18 -13.9 18 -19 18 C-19 16.35 -19 14.7 -19 13 C-20.98 13 -22.96 13 -25 13 C-25.33 12.01 -25.66 11.02 -26 10 C-26.99 10 -27.98 10 -29 10 C-28.67 12.31 -28.34 14.62 -28 17 C-31.875 16.125 -31.875 16.125 -33 15 C-32.8125 11.5625 -32.8125 11.5625 -32 8 C-29.9375 6.5625 -29.9375 6.5625 -28 6 C-28 5.34 -28 4.68 -28 4 C-24.535 3.505 -24.535 3.505 -21 3 C-21 4.65 -21 6.3 -21 8 C-21.33 7.01 -21.66 6.02 -22 5 C-22.99 5.495 -22.99 5.495 -24 6 C-24.33 6.99 -24.66 7.98 -25 9 C-24.01 9 -23.02 9 -22 9 C-22 9.99 -22 10.98 -22 12 C-21.01 12 -20.02 12 -19 12 C-18.87625 11.401875 -18.7525 10.80375 -18.625 10.1875 C-18 8 -18 8 -16 5 C-15.34 5 -14.68 5 -14 5 C-14.33 7.97 -14.66 10.94 -15 14 C-14.34 14 -13.68 14 -13 14 C-12.71125 13.236875 -12.4225 12.47375 -12.125 11.6875 C-11 9 -11 9 -9 6 C-7.68 6 -6.36 6 -5 6 C-5.33 8.31 -5.66 10.62 -6 13 C-2.77595022 11.33045181 -2.77595022 11.33045181 -2.3125 8.375 C-2.209375 7.59125 -2.10625 6.8075 -2 6 C-1.34 6 -0.68 6 0 6 C0 4.02 0 2.04 0 0 Z " fill="#AAC4E1" transform="translate(385,42)"/>
<path d="M0 0 C3.3 0 6.6 0 10 0 C9.69249629 2.14655501 9.3788634 4.29223285 9.0625 6.4375 C8.80146484 8.22994141 8.80146484 8.22994141 8.53515625 10.05859375 C8 13 8 13 7 14 C6.9175 15.175625 6.835 16.35125 6.75 17.5625 C6.17664596 22.44041979 4.44332717 26.44589555 1 30 C-2.89983874 30.73121976 -6.15611863 29.76877627 -10 29 C-11.9996441 28.96227087 -14.00054061 28.95350094 -16 29 C-16.49233432 19.08037523 -15.13543591 11.9166915 -9 4 C-8.34 4 -7.68 4 -7 4 C-6.875 9.75 -6.875 9.75 -8 12 C-6.68 12.33 -5.36 12.66 -4 13 C-4.33 14.32 -4.66 15.64 -5 17 C-4.34 17.33 -3.68 17.66 -3 18 C-3 21.3 -3 24.6 -3 28 C-2.01 28 -1.02 28 0 28 C0 26.68 0 25.36 0 24 C0.66 24 1.32 24 2 24 C2.13277344 23.00871094 2.26554687 22.01742187 2.40234375 20.99609375 C2.9752183 16.9859719 3.74881046 13.02972314 4.5625 9.0625 C4.70107422 8.37865234 4.83964844 7.69480469 4.98242188 6.99023438 C5.31983064 5.32646014 5.65965879 3.66317685 6 2 C4.02 2 2.04 2 0 2 C0 1.34 0 0.68 0 0 Z " fill="#CEDDED" transform="translate(344,31)"/>
<path d="M0 0 C0 0.66 0 1.32 0 2 C-1.37332284 2.62867668 -2.74875833 3.25273891 -4.125 3.875 C-4.89070313 4.22304687 -5.65640625 4.57109375 -6.4453125 4.9296875 C-9.25781125 6.10801267 -12.10051688 7.05692832 -15 8 C-15.96679688 8.34160156 -16.93359375 8.68320313 -17.9296875 9.03515625 C-23.68779285 11.04362005 -28.93600012 12.42792454 -35 13 C-35.33 13.33 -35.66 13.66 -36 14 C-41.74116691 14.37394574 -47.34445544 13.98357297 -53 13 C-53 10 -53 10 -52 9 C-50.845 8.855625 -49.69 8.71125 -48.5 8.5625 C-46.7675 8.2840625 -46.7675 8.2840625 -45 8 C-44.67 7.34 -44.34 6.68 -44 6 C-40.37 6 -36.74 6 -33 6 C-33 5.34 -33 4.68 -33 4 C-30.36 4 -27.72 4 -25 4 C-25 3.34 -25 2.68 -25 2 C-23.41058594 1.90912109 -23.41058594 1.90912109 -21.7890625 1.81640625 C-20.40102779 1.73199873 -19.01300768 1.64735083 -17.625 1.5625 C-16.92632812 1.52318359 -16.22765625 1.48386719 -15.5078125 1.44335938 C-10.03054718 1.10103029 -5.5949148 -0.09024056 0 0 Z " fill="#5388BF" transform="translate(250,60)"/>
<path d="M0 0 C-0.3492558 3.14330223 -0.83925733 4.79491452 -2.8125 7.3125 C-5 9 -5 9 -9 9 C-9 9.99 -9 10.98 -9 12 C-3.21772501 10.42301591 -0.42052325 8.40396243 2.625 3.25 C3.07875 2.5075 3.5325 1.765 4 1 C4.66 1 5.32 1 6 1 C6 3.64 6 6.28 6 9 C6.78375 8.01 7.5675 7.02 8.375 6 C9.674375 4.515 9.674375 4.515 11 3 C11.66 3 12.32 3 13 3 C12.67 6.63 12.34 10.26 12 14 C11.34 14 10.68 14 10 14 C10 14.99 10 15.98 10 17 C9.34 17 8.68 17 8 17 C7.87625 17.61875 7.7525 18.2375 7.625 18.875 C7 21 7 21 5 23 C3.68 23 2.36 23 1 23 C1.33 22.34 1.66 21.68 2 21 C2.66 21.33 3.32 21.66 4 22 C4 21.34 4 20.68 4 20 C4.66 20 5.32 20 6 20 C6.33 17.69 6.66 15.38 7 13 C5.54119891 13.14107747 4.08296449 13.28802415 2.625 13.4375 C1.81289063 13.51871094 1.00078125 13.59992187 0.1640625 13.68359375 C-2.04272805 13.89090114 -2.04272805 13.89090114 -4 15 C-6.3329866 15.04022391 -8.66706666 15.04320247 -11 15 C-11 14.01 -11 13.02 -11 12 C-11.66 12 -12.32 12 -13 12 C-12.6375 4.75 -12.6375 4.75 -9.875 1.5 C-6.36721742 -0.33014743 -3.90341251 -0.30615 0 0 Z " fill="#B2C9E3" transform="translate(426,45)"/>
<path d="M0 0 C4.56848111 0.87855406 8.69954021 2.69954021 12 6 C14.19089175 6.61005788 14.19089175 6.61005788 16.6875 7 C20.89445928 7.76934234 24.91052214 8.7553763 29 10 C29 10.66 29 11.32 29 12 C29.99 11.938125 30.98 11.87625 32 11.8125 C37.37572659 11.8125 41.98660217 13.74162636 46.5 16.5625 C49.90577872 18.52082276 53.16557476 19.13416204 57 20 C57.99 20.33 58.98 20.66 60 21 C60 21.66 60 22.32 60 23 C61.175625 23.268125 62.35125 23.53625 63.5625 23.8125 C66.42011771 24.52058226 69.05817359 25.37132302 71.75 26.5625 C74.22645541 27.65785528 76.36722262 28.47344452 79 29 C79 29.66 79 30.32 79 31 C80.485 31.495 80.485 31.495 82 32 C81.29875 31.855625 80.5975 31.71125 79.875 31.5625 C76.92443859 30.98521625 73.96729849 30.48304859 71 30 C71 29.34 71 28.68 71 28 C70.29875 28.04125 69.5975 28.0825 68.875 28.125 C65.54563282 27.98024491 63.15169959 27.10893134 60 26 C56.34284769 24.96448036 52.67233858 23.98016154 49 23 C49 22.34 49 21.68 49 21 C47.68 20.67 46.36 20.34 45 20 C45 19.34 45 18.68 45 18 C44.34 18 43.68 18 43 18 C43 17.34 43 16.68 43 16 C42.113125 16.04125 41.22625 16.0825 40.3125 16.125 C37 16 37 16 34.5 14.9375 C32.00702024 13.7284573 32.00702024 13.7284573 29.375 14.6875 C24.71031509 15.11941527 21.79101699 13.31231785 17.68359375 11.2265625 C15.09036487 10.04130214 12.8062862 9.43642064 10 9 C10 8.34 10 7.68 10 7 C8.63875 6.9071875 8.63875 6.9071875 7.25 6.8125 C3.25091923 5.81272981 2.20545641 4.39300985 0 1 C0 0.67 0 0.34 0 0 Z " fill="#D7DEE5" transform="translate(18,39)"/>
<path d="M0 0 C0.52207031 0.18175781 1.04414062 0.36351562 1.58203125 0.55078125 C7.65749813 2.62559043 13.79305783 4.36415169 20 6 C20.33 5.34 20.66 4.68 21 4 C25.455 5.98 25.455 5.98 30 8 C30 8.99 30 9.98 30 11 C31.32 11 32.64 11 34 11 C34 11.66 34 12.32 34 13 C28.25 13.125 28.25 13.125 26 12 C26.33 15.63 26.66 19.26 27 23 C33.28725959 25.19385228 39.31539778 25.42769342 45.9375 25.625 C47.00291016 25.66367187 48.06832031 25.70234375 49.16601562 25.7421875 C51.77717734 25.83586146 54.38834304 25.92158335 57 26 C57 26.33 57 26.66 57 27 C52.43783535 27.14532035 47.87626638 27.23408477 43.3125 27.3125 C41.37213867 27.3753418 41.37213867 27.3753418 39.39257812 27.43945312 C37.52182617 27.46362305 37.52182617 27.46362305 35.61328125 27.48828125 C34.46641846 27.51446533 33.31955566 27.54064941 32.13793945 27.56762695 C28.04487824 26.82722648 26.57168442 25.19013034 24 22 C23.64444503 19.04734785 24.34835149 16.95748169 25 14 C24.29875 13.87625 23.5975 13.7525 22.875 13.625 C20 13 20 13 17.25 12 C13.18995154 10.75075432 9.21915543 10.35628424 5 10 C5 9.34 5 8.68 5 8 C5.99 8 6.98 8 8 8 C8 7.01 8 6.02 8 5 C7.071875 4.87625 6.14375 4.7525 5.1875 4.625 C2 4 2 4 -1 2 C-0.67 1.34 -0.34 0.68 0 0 Z " fill="#BBCBDB" transform="translate(106,35)"/>
<path d="M0 0 C1.32 0.33 2.64 0.66 4 1 C3.01 1 2.02 1 1 1 C1.66 1.99 2.32 2.98 3 4 C3.265625 6.33984375 3.265625 6.33984375 3.25 8.9375 C3.25515625 9.79214844 3.2603125 10.64679687 3.265625 11.52734375 C2.98713633 14.11974567 2.30669172 15.76514234 1 18 C-2.375 18.125 -2.375 18.125 -6 18 C-8 16 -8 16 -8.125 12.375 C-8.08375 11.26125 -8.0425 10.1475 -8 9 C-8.66 9 -9.32 9 -10 9 C-10 8.01 -10 7.02 -10 6 C-11.216875 6.020625 -12.43375 6.04125 -13.6875 6.0625 C-16.91977322 6.06824116 -19.84934741 5.78766315 -23 5 C-23 4.34 -23 3.68 -23 3 C-23.66 2.67 -24.32 2.34 -25 2 C-23.68 2 -22.36 2 -21 2 C-21 2.66 -21 3.32 -21 4 C-16.38 4 -11.76 4 -7 4 C-6.67 3.34 -6.34 2.68 -6 2 C-4.02 2 -2.04 2 0 2 C0 1.34 0 0.68 0 0 Z " fill="#BACFE2" transform="translate(159,40)"/>
<path d="M0 0 C2.00720923 0.28674418 4.0085944 0.61866701 6 1 C6.9360342 4.79267192 6.98276252 7.93674565 6.5625 11.8125 C6.46066406 12.78832031 6.35882813 13.76414062 6.25390625 14.76953125 C6.17011719 15.50558594 6.08632812 16.24164063 6 17 C1.07262981 18.97094808 -2.78020872 19.1799928 -8 19 C-7.49357808 14.64477147 -6.61588503 11.55760365 -4 8 C-3.34 8 -2.68 8 -2 8 C-1.855625 6.865625 -1.71125 5.73125 -1.5625 4.5625 C-1 1 -1 1 0 0 Z " fill="#3D78B8" transform="translate(204,16)"/>
<path d="M0 0 C2.64 0 5.28 0 8 0 C8 1.32 8 2.64 8 4 C6.9275 4 5.855 4 4.75 4 C1.01358689 4.57686175 1.01358689 4.57686175 -0.35546875 6.84765625 C-1.34440343 8.87193771 -2.2244757 10.88537164 -3 13 C-1.824375 11.7625 -1.824375 11.7625 -0.625 10.5 C2 8 2 8 4 8 C4 7.34 4 6.68 4 6 C4.99 6 5.98 6 7 6 C7 8.97 7 11.94 7 15 C6.030625 14.979375 5.06125 14.95875 4.0625 14.9375 C1.12534105 14.64381501 1.12534105 14.64381501 0 16 C-1.99799572 16.09873816 -3.99957158 16.12971799 -6 16.125 C-7.093125 16.12757812 -8.18625 16.13015625 -9.3125 16.1328125 C-12 16 -12 16 -13 15 C-13.23363881 13.15108054 -13.41303635 11.29511969 -13.5625 9.4375 C-13.68818359 7.91962891 -13.68818359 7.91962891 -13.81640625 6.37109375 C-13.87699219 5.58863281 -13.93757813 4.80617188 -14 4 C-12.35 4 -10.7 4 -9 4 C-9.33 6.97 -9.66 9.94 -10 13 C-5.67137075 11.41883524 -5.67137075 11.41883524 -4.75 7.375 C-4.37875 5.704375 -4.37875 5.704375 -4 4 C-3.34 4 -2.68 4 -2 4 C-2 3.34 -2 2.68 -2 2 C-1.34 2 -0.68 2 0 2 C0 1.34 0 0.68 0 0 Z " fill="#B8CDE5" transform="translate(303,44)"/>
<path d="M0 0 C5.15871047 0.33923493 9.27063651 0.96999677 13.98046875 3.2421875 C17.5675542 4.58821183 21.35163201 4.95704073 25.1328125 5.47265625 C27.98243332 5.99676907 30.32710831 6.9091125 33 8 C35.66572015 8.49313497 38.29815717 8.72523632 41 9 C41 9.33 41 9.66 41 10 C25.49230769 10.24615385 25.49230769 10.24615385 21 8 C19.48154798 7.90527088 17.95889616 7.8701159 16.4375 7.875 C15.63183594 7.87242188 14.82617188 7.86984375 13.99609375 7.8671875 C12.00057979 7.77988609 12.00057979 7.77988609 11 9 C8.66702567 9.04092937 6.33294775 9.04241723 4 9 C4 8.34 4 7.68 4 7 C-0.95 7.33 -5.9 7.66 -11 8 C-11 8.66 -11 9.32 -11 10 C-15.12494151 10.05784708 -19.24977944 10.09354407 -23.375 10.125 C-24.550625 10.14175781 -25.72625 10.15851563 -26.9375 10.17578125 C-28.61972656 10.18544922 -28.61972656 10.18544922 -30.3359375 10.1953125 C-31.37282715 10.20578613 -32.4097168 10.21625977 -33.47802734 10.22705078 C-36 10 -36 10 -38 8 C-37.31373535 7.97494385 -36.6274707 7.9498877 -35.92041016 7.92407227 C-32.82174183 7.80828573 -29.72339077 7.68548115 -26.625 7.5625 C-25.54476562 7.52318359 -24.46453125 7.48386719 -23.3515625 7.44335938 C-21.8046875 7.38051758 -21.8046875 7.38051758 -20.2265625 7.31640625 C-19.27346191 7.27974854 -18.32036133 7.24309082 -17.33837891 7.20532227 C-14.97867651 7.14236535 -14.97867651 7.14236535 -13 6 C-11.1136088 5.915085 -9.22421485 5.892807 -7.3359375 5.90234375 C-6.21445313 5.90556641 -5.09296875 5.90878906 -3.9375 5.91210938 C-2.761875 5.92048828 -1.58625 5.92886719 -0.375 5.9375 C0.80835938 5.94201172 1.99171875 5.94652344 3.2109375 5.95117188 C6.14067507 5.96298533 9.07031272 5.97945742 12 6 C12 5.34 12 4.68 12 4 C10.9790625 4.061875 10.9790625 4.061875 9.9375 4.125 C6.40075832 3.97450035 3.36676967 3.05624147 0 2 C0 1.34 0 0.68 0 0 Z " fill="#81A7CF" transform="translate(100,71)"/>
<path d="M0 0 C0 0.66 0 1.32 0 2 C-1.37332284 2.62867668 -2.74875833 3.25273891 -4.125 3.875 C-4.89070313 4.22304687 -5.65640625 4.57109375 -6.4453125 4.9296875 C-9.25793708 6.10806538 -12.10037958 7.05679438 -15 8 C-16.00160156 8.35320312 -17.00320312 8.70640625 -18.03515625 9.0703125 C-19.53369141 9.59238281 -19.53369141 9.59238281 -21.0625 10.125 C-22.06410156 10.47820312 -23.06570312 10.83140625 -24.09765625 11.1953125 C-26.89387691 11.97057691 -29.11845877 12.15861695 -32 12 C-32 11.34 -32 10.68 -32 10 C-29.69 10 -27.38 10 -25 10 C-25 9.34 -25 8.68 -25 8 C-23.02 7.67 -21.04 7.34 -19 7 C-19 6.34 -19 5.68 -19 5 C-20.79206547 5.14084796 -22.58364917 5.28783701 -24.375 5.4375 C-25.87160156 5.55931641 -25.87160156 5.55931641 -27.3984375 5.68359375 C-29.97927613 5.84965626 -29.97927613 5.84965626 -32 7 C-34.0374763 7.22858114 -36.08040303 7.41024278 -38.125 7.5625 C-39.22070312 7.64628906 -40.31640625 7.73007813 -41.4453125 7.81640625 C-42.28835937 7.87699219 -43.13140625 7.93757813 -44 8 C-44 7.34 -44 6.68 -44 6 C-40.37 6 -36.74 6 -33 6 C-33 5.34 -33 4.68 -33 4 C-30.36 4 -27.72 4 -25 4 C-25 3.34 -25 2.68 -25 2 C-23.41058594 1.90912109 -23.41058594 1.90912109 -21.7890625 1.81640625 C-20.40102779 1.73199873 -19.01300768 1.64735083 -17.625 1.5625 C-16.92632812 1.52318359 -16.22765625 1.48386719 -15.5078125 1.44335938 C-10.03054718 1.10103029 -5.5949148 -0.09024056 0 0 Z " fill="#6796C6" transform="translate(250,60)"/>
<path d="M0 0 C0.66 0 1.32 0 2 0 C1.67 5.61 1.34 11.22 1 17 C2.85625 16.38125 4.7125 15.7625 6.625 15.125 C8.75 14.41666667 10.875 13.70833333 13 13 C14.02351563 12.63777344 15.04703125 12.27554687 16.1015625 11.90234375 C18.72998344 11.08406176 21.01838723 10.65885483 23.75 10.4375 C26.99670961 10.17267781 26.99670961 10.17267781 30 9 C32.9375 8.75 32.9375 8.75 36 9 C37.69140625 10.515625 37.69140625 10.515625 39 12 C38.36191406 11.98839844 37.72382813 11.97679687 37.06640625 11.96484375 C36.24011719 11.95582031 35.41382813 11.94679688 34.5625 11.9375 C33.73878906 11.92589844 32.91507813 11.91429687 32.06640625 11.90234375 C30.00836062 11.76732652 30.00836062 11.76732652 29 13 C27.00041636 13.04080783 24.99954746 13.04254356 23 13 C23 13.66 23 14.32 23 15 C21.51113281 15.14695312 21.51113281 15.14695312 19.9921875 15.296875 C11.70492332 16.18472285 4.05542767 17.58944379 -3.9140625 20.09765625 C-6.93617677 20.98133776 -9.88709091 21.54661835 -13 22 C-13 21.34 -13 20.68 -13 20 C-13.99 20 -14.98 20 -16 20 C-15.67 18.68 -15.34 17.36 -15 16 C-14.67 16.66 -14.34 17.32 -14 18 C-7.07 17.01 -7.07 17.01 0 16 C0 10.72 0 5.44 0 0 Z " fill="#8BADD0" transform="translate(210,17)"/>
<path d="M0 0 C1.65 0 3.3 0 5 0 C5.66 5.28 6.32 10.56 7 16 C5.68 16.33 4.36 16.66 3 17 C1.25 15.5625 1.25 15.5625 0 14 C-0.99 14.33 -1.98 14.66 -3 15 C-3.33 15.99 -3.66 16.98 -4 18 C-6.31 18 -8.62 18 -11 18 C-9.68 17.34 -8.36 16.68 -7 16 C-7.20625 15.46375 -7.4125 14.9275 -7.625 14.375 C-8.1314747 11.16732692 -7.15400225 8.98682934 -6 6 C-5.06576355 9.01031744 -4.95550089 9.86650268 -6 13 C-2.77595022 11.33045181 -2.77595022 11.33045181 -2.3125 8.375 C-2.209375 7.59125 -2.10625 6.8075 -2 6 C-1.34 6 -0.68 6 0 6 C0 4.02 0 2.04 0 0 Z " fill="#D8E4F1" transform="translate(385,42)"/>
<path d="M0 0 C3.3 0 6.6 0 10 0 C9.69249629 2.14655501 9.3788634 4.29223285 9.0625 6.4375 C8.88847656 7.63246094 8.71445312 8.82742187 8.53515625 10.05859375 C8 13 8 13 7 14 C6.9175 15.175625 6.835 16.35125 6.75 17.5625 C6.17748036 22.43332091 4.44950816 26.45874961 1 30 C-2.1875 30.625 -2.1875 30.625 -5 30 C-7 28 -7 28 -7.1875 24.5 C-7 21 -7 21 -6 19 C-5.01 19 -4.02 19 -3 19 C-3 21.97 -3 24.94 -3 28 C-2.01 28 -1.02 28 0 28 C0 26.68 0 25.36 0 24 C0.66 24 1.32 24 2 24 C2.13277344 23.00871094 2.26554687 22.01742187 2.40234375 20.99609375 C2.9752183 16.9859719 3.74881046 13.02972314 4.5625 9.0625 C4.70107422 8.37865234 4.83964844 7.69480469 4.98242188 6.99023438 C5.31983064 5.32646014 5.65965879 3.66317685 6 2 C4.02 2 2.04 2 0 2 C0 1.34 0 0.68 0 0 Z " fill="#91B2D7" transform="translate(344,31)"/>
<path d="M0 0 C2.20160479 0.73386826 4.40274276 1.46874913 6.6015625 2.2109375 C8.55325209 2.8530243 10.52445604 3.43555887 12.5 4 C13.7375 4.495 13.7375 4.495 15 5 C15.33 5.99 15.66 6.98 16 8 C9.2108398 11.00289778 4.44989988 12.124165 -3 12 C-3.33 11.01 -3.66 10.02 -4 9 C-3.34 9 -2.68 9 -2 9 C-2 8.34 -2 7.68 -2 7 C-1.34 7 -0.68 7 0 7 C0 4.69 0 2.38 0 0 Z " fill="#3E88C6" transform="translate(62,67)"/>
<path d="M0 0 C2.0625 0.4375 2.0625 0.4375 4 1 C3.36191406 1.19335938 2.72382813 1.38671875 2.06640625 1.5859375 C1.24011719 1.84632812 0.41382813 2.10671875 -0.4375 2.375 C-1.67306641 2.75785156 -1.67306641 2.75785156 -2.93359375 3.1484375 C-5.17798016 3.80882227 -5.17798016 3.80882227 -6 6 C-4.68 6.66 -3.36 7.32 -2 8 C-2 8.66 -2 9.32 -2 10 C-6.29 10 -10.58 10 -15 10 C-15.66 13.63 -16.32 17.26 -17 21 C-14.69 21 -12.38 21 -10 21 C-13.13498292 22.85776765 -15.37471432 23.20140476 -19 23 C-19 23.99 -19 24.98 -19 26 C-19.66 25.67 -20.32 25.34 -21 25 C-20.34 21.7 -19.68 18.4 -19 15 C-21.97 14.505 -21.97 14.505 -25 14 C-25 13.34 -25 12.68 -25 12 C-25.99 12 -26.98 12 -28 12 C-28 11.34 -28 10.68 -28 10 C-21.6 8.76923077 -21.6 8.76923077 -18.5625 9.9375 C-18.046875 10.288125 -17.53125 10.63875 -17 11 C-16.67 10.01 -16.34 9.02 -16 8 C-11.545 7.505 -11.545 7.505 -7 7 C-7.66 6.67 -8.32 6.34 -9 6 C-8.67 4.68 -8.34 3.36 -8 2 C-6.865625 1.855625 -5.73125 1.71125 -4.5625 1.5625 C-1.19222799 1.38828522 -1.19222799 1.38828522 0 0 Z " fill="#B6CAE0" transform="translate(222,42)"/>
<path d="M0 0 C1.75570312 0.01353516 1.75570312 0.01353516 3.546875 0.02734375 C4.43890625 0.03894531 5.3309375 0.05054688 6.25 0.0625 C5.90625 2.453125 5.90625 2.453125 5.25 5.0625 C0.59416256 8.32158621 -4.23597576 8.70715177 -9.75 9.0625 C-8.75 7.0625 -8.75 7.0625 -6.60546875 6.24609375 C-5.72503906 5.99988281 -4.84460938 5.75367187 -3.9375 5.5 C-3.06480469 5.25121094 -2.19210938 5.00242187 -1.29296875 4.74609375 C0.88298581 4.16115973 3.06146376 3.59815572 5.25 3.0625 C5.25 2.4025 5.25 1.7425 5.25 1.0625 C4.70214844 1.206875 4.15429688 1.35125 3.58984375 1.5 C-4.2555418 3.33696832 -11.73570553 3.25484307 -19.75 3.0625 C-19.75 3.7225 -19.75 4.3825 -19.75 5.0625 C-22.39 5.0625 -25.03 5.0625 -27.75 5.0625 C-27.75 5.7225 -27.75 6.3825 -27.75 7.0625 C-31.38 7.0625 -35.01 7.0625 -38.75 7.0625 C-39.08 8.0525 -39.41 9.0425 -39.75 10.0625 C-42.39 10.3925 -45.03 10.7225 -47.75 11.0625 C-47.75 10.4025 -47.75 9.7425 -47.75 9.0625 C-45.77 9.0625 -43.79 9.0625 -41.75 9.0625 C-41.75 8.0725 -41.75 7.0825 -41.75 6.0625 C-32.28942943 3.77964627 -23.11288961 1.67968493 -13.3515625 1.23828125 C-10.83771134 1.15224528 -10.83771134 1.15224528 -8.8203125 0.546875 C-5.86429808 -0.14472083 -3.02965072 -0.03029651 0 0 Z " fill="#9BB9D6" transform="translate(244.75,58.9375)"/>
<path d="M0 0 C1.32 2.64 2.64 5.28 4 8 C1.95863605 8.05451714 -0.08315856 8.09302485 -2.125 8.125 C-3.83042969 8.15980469 -3.83042969 8.15980469 -5.5703125 8.1953125 C-9.05757767 7.99672109 -11.7553862 7.2524801 -15 6 C-14.125 2.125 -14.125 2.125 -13 1 C-8.62512908 0.34376936 -4.43069564 -0.13845924 0 0 Z " fill="#3673B6" transform="translate(148,51)"/>
<path d="M0 0 C0 0.66 0 1.32 0 2 C0.66 2 1.32 2 2 2 C2.25 9.625 2.25 9.625 0 13 C-0.99 13 -1.98 13 -3 13 C-3 10.36 -3 7.72 -3 5 C-4.32 5 -5.64 5 -7 5 C-7 5.66 -7 6.32 -7 7 C-7.99 7 -8.98 7 -10 7 C-10 8.98 -10 10.96 -10 13 C-10.33 11.68 -10.66 10.36 -11 9 C-11.66 9 -12.32 9 -13 9 C-12.67 11.31 -12.34 13.62 -12 16 C-12.66 16 -13.32 16 -14 16 C-14.42014232 9.90793639 -14.06715472 6.88058567 -10 2 C-6.3558226 -0.4294516 -4.28758728 -0.16179575 0 0 Z " fill="#D3E0EF" transform="translate(270,29)"/>
<path d="M0 0 C5.93002267 -0.37851209 10.47239641 0.89424625 16 3 C15.01 3.495 15.01 3.495 14 4 C14 4.66 14 5.32 14 6 C15.65 6 17.3 6 19 6 C19 7.65 19 9.3 19 11 C15.12559792 10.06942768 11.34072096 8.8951224 7.53515625 7.71875 C5.03773655 7.01069881 2.55106359 6.47461648 0 6 C0 4.02 0 2.04 0 0 Z " fill="#ABC1D6" transform="translate(65,24)"/>
<path d="M0 0 C2.31 0 4.62 0 7 0 C7.44539877 8.7595092 7.44539877 8.7595092 4 13 C3.34 13 2.68 13 2 13 C2 10.03 2 7.06 2 4 C1.34 4 0.68 4 0 4 C-0.33 5.32 -0.66 6.64 -1 8 C-1.66 8 -2.32 8 -3 8 C-3.66 9.65 -4.32 11.3 -5 13 C-5.66 13 -6.32 13 -7 13 C-6.67 9.37 -6.34 5.74 -6 2 C-2 1 -2 1 0 2 C0 1.34 0 0.68 0 0 Z " fill="#ADC6E1" transform="translate(279,46)"/>
<path d="M0 0 C1.32 0 2.64 0 4 0 C4 0.66 4 1.32 4 2 C4.78375 2.103125 5.5675 2.20625 6.375 2.3125 C13.1776534 3.6026584 19.65900759 5.81013023 26.10546875 8.3046875 C29.02665792 9.37679404 31.99743391 10.18680502 35 11 C35 11.99 35 12.98 35 14 C31.08894391 14.35555055 28.59073309 13.42440997 25.0534668 11.85327148 C21.27189631 10.28192577 17.34897654 9.13890403 13.4375 7.9375 C11.79023713 7.42619167 10.14309878 6.914482 8.49609375 6.40234375 C7.7263623 6.16370605 6.95663086 5.92506836 6.16357422 5.67919922 C3.4304259 4.82119666 0.7131729 3.91904884 -2 3 C-1.34 2.01 -0.68 1.02 0 0 Z " fill="#92B2D3" transform="translate(91,27)"/>
<path d="M0 0 C10.05710878 -0.39268538 18.78860946 0.82880428 28 5 C29.4308885 5.37999786 30.86893069 5.7339457 32.3125 6.0625 C36 7 36 7 38 9 C31.365037 8.67442652 25.53471626 8.04398775 19.3125 5.69921875 C14.98903614 4.39195518 10.49038412 4.243404 6 4 C6 3.34 6 2.68 6 2 C4.02 2 2.04 2 0 2 C0 1.34 0 0.68 0 0 Z " fill="#78A1CC" transform="translate(55,20)"/>
<path d="M0 0 C0.99 0.33 1.98 0.66 3 1 C2.67 5.62 2.34 10.24 2 15 C2.99 14.34 3.98 13.68 5 13 C10.98616843 11.27751459 16.80145667 10.77042432 23 11 C23 10.34 23 9.68 23 9 C26.3 9 29.6 9 33 9 C26.82857143 12.08571429 26.82857143 12.08571429 22.875 12.375 C18.93605941 12.77077872 15.76793698 13.73465325 12.12890625 15.234375 C8.19540018 16.6489937 4.10542257 17.25874315 0 18 C0 12.06 0 6.12 0 0 Z " fill="#E1EAF3" transform="translate(211,16)"/>
<path d="M0 0 C5.28 0 10.56 0 16 0 C16 0.66 16 1.32 16 2 C11.545 2.495 11.545 2.495 7 3 C7 3.99 7 4.98 7 6 C0.84765625 6.09765625 0.84765625 6.09765625 -1 6 C-1.33 5.67 -1.66 5.34 -2 5 C-3.70563778 4.84259395 -5.41727244 4.74906608 -7.12890625 4.68359375 C-8.16337891 4.64169922 -9.19785156 4.59980469 -10.26367188 4.55664062 C-11.35228516 4.51732422 -12.44089844 4.47800781 -13.5625 4.4375 C-14.65498047 4.39431641 -15.74746094 4.35113281 -16.87304688 4.30664062 C-19.58189564 4.20017932 -22.29083992 4.09816484 -25 4 C-25.33 3.34 -25.66 2.68 -26 2 C-22.9999376 1.97278169 -20.00012744 1.95305622 -17 1.9375 C-16.16082031 1.92912109 -15.32164063 1.92074219 -14.45703125 1.91210938 C-9.20680661 1.89175967 -4.19544338 2.23631793 1 3 C0.67 2.01 0.34 1.02 0 0 Z " fill="#BFD2E7" transform="translate(88,78)"/>
<path d="M0 0 C1 3 1 3 0 6 C0.99 6 1.98 6 3 6 C3.33 5.01 3.66 4.02 4 3 C4 3.66 4 4.32 4 5 C4.99 5 5.98 5 7 5 C7 5.66 7 6.32 7 7 C-3.55964732 10.37010021 -14.04575625 10.12096711 -25 10 C-25 9.67 -25 9.34 -25 9 C-24.29875 8.93941406 -23.5975 8.87882812 -22.875 8.81640625 C-17.23182765 8.31802826 -11.61635883 7.74178324 -6 7 C-5.67 6.01 -5.34 5.02 -5 4 C-3.37667033 2.61423077 -1.71275535 1.27358732 0 0 Z " fill="#8DAFD1" transform="translate(190,32)"/>
<path d="M0 0 C15.84 0 31.68 0 48 0 C48 0.33 48 0.66 48 1 C44.37 1 40.74 1 37 1 C37 1.66 37 2.32 37 3 C29.41 3 21.82 3 14 3 C14 2.34 14 1.68 14 1 C9.38 1 4.76 1 0 1 C0 0.67 0 0.34 0 0 Z " fill="#78A0CB" transform="translate(144,82)"/>
<path d="M0 0 C1.61455078 0.00483398 1.61455078 0.00483398 3.26171875 0.00976562 C4.38964844 0.01814453 5.51757812 0.02652344 6.6796875 0.03515625 C8.38318359 0.04192383 8.38318359 0.04192383 10.12109375 0.04882812 C12.93234388 0.0606401 15.7434898 0.07711118 18.5546875 0.09765625 C18.2246875 0.75765625 17.8946875 1.41765625 17.5546875 2.09765625 C10.6246875 2.09765625 3.6946875 2.09765625 -3.4453125 2.09765625 C-3.4453125 2.75765625 -3.4453125 3.41765625 -3.4453125 4.09765625 C-7.57025401 4.15550333 -11.69509194 4.19120032 -15.8203125 4.22265625 C-16.9959375 4.23941406 -18.1715625 4.25617188 -19.3828125 4.2734375 C-21.06503906 4.28310547 -21.06503906 4.28310547 -22.78125 4.29296875 C-23.81813965 4.30344238 -24.8550293 4.31391602 -25.92333984 4.32470703 C-28.4453125 4.09765625 -28.4453125 4.09765625 -30.4453125 2.09765625 C-29.75904785 2.0726001 -29.0727832 2.04754395 -28.36572266 2.02172852 C-25.26705433 1.90594198 -22.16870327 1.7831374 -19.0703125 1.66015625 C-17.99007812 1.62083984 -16.90984375 1.58152344 -15.796875 1.54101562 C-14.25 1.47817383 -14.25 1.47817383 -12.671875 1.4140625 C-11.71877441 1.37740479 -10.76567383 1.34074707 -9.78369141 1.30297852 C-6.29565137 0.99670981 -3.67461147 -0.01934006 0 0 Z " fill="#6695C8" transform="translate(92.4453125,76.90234375)"/>
<path d="M0 0 C2.31332486 3.46998729 2.33957563 4.92509248 2 9 C1.01 10.485 1.01 10.485 0 12 C-2.4375 11.625 -2.4375 11.625 -5 11 C-6.60725635 7.78548731 -6.05748185 4.56387464 -6 1 C-4 0 -4 0 0 0 Z " fill="#365C87" transform="translate(158,43)"/>
<path d="M0 0 C1.98 0 3.96 0 6 0 C6 0.99 6 1.98 6 3 C8.64 3 11.28 3 14 3 C14 4.98 14 6.96 14 9 C14.66 9 15.32 9 16 9 C16 8.01 16 7.02 16 6 C16.66 6.33 17.32 6.66 18 7 C17.25 9.4375 17.25 9.4375 16 12 C14.68 12.33 13.36 12.66 12 13 C12.33 10.03 12.66 7.06 13 4 C11.35 4 9.7 4 8 4 C8.33 4.66 8.66 5.32 9 6 C9.13415472 8.6723621 9.04318541 11.32250488 9 14 C8.34 14 7.68 14 7 14 C6.67 13.01 6.34 12.02 6 11 C5.01 11.495 5.01 11.495 4 12 C4.33 8.7 4.66 5.4 5 2 C3.35 2 1.7 2 0 2 C0 1.34 0 0.68 0 0 Z " fill="#CADAEC" transform="translate(281,44)"/>
<path d="M0 0 C-0.66 0.66 -1.32 1.32 -2 2 C-3.32 2 -4.64 2 -6 2 C-6 2.66 -6 3.32 -6 4 C-8.31 4 -10.62 4 -13 4 C-13 4.66 -13 5.32 -13 6 C-16.96 5.67 -20.92 5.34 -25 5 C-24.34 4.67 -23.68 4.34 -23 4 C-23 3.34 -23 2.68 -23 2 C-15.26134446 -0.13480153 -7.99976044 -0.20483028 0 0 Z " fill="#3C77B8" transform="translate(223,67)"/>
<path d="M0 0 C18.66631049 1.09632117 18.66631049 1.09632117 26 5 C26 5.66 26 6.32 26 7 C23.2079699 6.8595017 20.41650204 6.71284617 17.625 6.5625 C16.8309375 6.52318359 16.036875 6.48386719 15.21875 6.44335938 C9.2265625 6.11328125 9.2265625 6.11328125 7 5 C5.12943209 4.7724985 3.25314042 4.59037189 1.375 4.4375 C-0.12933594 4.31181641 -0.12933594 4.31181641 -1.6640625 4.18359375 C-2.43492187 4.12300781 -3.20578125 4.06242187 -4 4 C-4 3.34 -4 2.68 -4 2 C-2.35 2 -0.7 2 1 2 C0.67 1.34 0.34 0.68 0 0 Z " fill="#A3BEDA" transform="translate(132,78)"/>
<path d="M0 0 C1.32 0 2.64 0 4 0 C4 2.64 4 5.28 4 8 C4.99 8.33 5.98 8.66 7 9 C6.01 9 5.02 9 4 9 C4.33 9.99 4.66 10.98 5 12 C5.66 12.33 6.32 12.66 7 13 C6.67 13.66 6.34 14.32 6 15 C2.48300581 13.04611434 -0.52486039 11.20851431 -3 8 C-3.25 4.75 -3.25 4.75 -3 2 C-2.01 2 -1.02 2 0 2 C0 1.34 0 0.68 0 0 Z " fill="#EDF2F8" transform="translate(263,34)"/>
<path d="M0 0 C1.2065625 0.0309375 1.2065625 0.0309375 2.4375 0.0625 C3.94684217 3.08118434 3.61260672 5.73547229 3.4375 9.0625 C2.4475 10.5475 2.4475 10.5475 1.4375 12.0625 C-2.4375 11.1875 -2.4375 11.1875 -3.5625 10.0625 C-3.6604057 8.56511876 -3.69224864 7.06307108 -3.6875 5.5625 C-3.69007812 4.7478125 -3.69265625 3.933125 -3.6953125 3.09375 C-3.49425003 0.01867689 -3.10408492 0.07570939 0 0 Z " fill="#325984" transform="translate(55.5625,61.9375)"/>
<path d="M0 0 C4.62 0 9.24 0 14 0 C13.67 1.32 13.34 2.64 13 4 C13.66 4 14.32 4 15 4 C15 5.98 15 7.96 15 10 C14.67 10 14.34 10 14 10 C14 8.35 14 6.7 14 5 C12.77023438 5.14308594 12.77023438 5.14308594 11.515625 5.2890625 C9.89914063 5.45535156 9.89914063 5.45535156 8.25 5.625 C7.18265625 5.74101563 6.1153125 5.85703125 5.015625 5.9765625 C1.96207601 6.00029475 0.53837579 5.61420985 -2 4 C-2 4.99 -2 5.98 -2 7 C-2.66 7 -3.32 7 -4 7 C-4 5.35 -4 3.7 -4 2 C-1.36 2.33 1.28 2.66 4 3 C4 2.34 4 1.68 4 1 C2.68 0.67 1.36 0.34 0 0 Z " fill="#82A8CC" transform="translate(136,45)"/>
<path d="M0 0 C4.80729762 0.92448031 8.81616767 3.13903103 12.75 6 C16.95634753 8.58852156 21.24860432 9.76050548 26 11 C26 11.66 26 12.32 26 13 C20.34979382 12.39891424 15.33835539 10.92471317 10 9 C10 8.34 10 7.68 10 7 C8.63875 6.9071875 8.63875 6.9071875 7.25 6.8125 C3.25091923 5.81272981 2.20545641 4.39300985 0 1 C0 0.67 0 0.34 0 0 Z " fill="#85A9CF" transform="translate(18,39)"/>
<path d="M0 0 C0.98226562 0.27263672 0.98226562 0.27263672 1.984375 0.55078125 C7.05694028 1.94788609 12.13206289 3.2786741 17.25 4.5 C21.77481122 5.61361934 25.77305603 7.06265068 30 9 C31.32276056 9.37308631 32.65232077 9.73046415 34 10 C34 10.66 34 11.32 34 12 C34.99 12.33 35.98 12.66 37 13 C36.29875 12.855625 35.5975 12.71125 34.875 12.5625 C31.92443859 11.98521625 28.96729849 11.48304859 26 11 C26 10.34 26 9.68 26 9 C24.948125 9.061875 24.948125 9.061875 23.875 9.125 C20.54563282 8.98024491 18.15169959 8.10893134 15 7 C11.34284769 5.96448036 7.67233858 4.98016154 4 4 C4 3.34 4 2.68 4 2 C2.68 1.67 1.36 1.34 0 1 C0 0.67 0 0.34 0 0 Z " fill="#9DB9D4" transform="translate(63,58)"/>
<path d="M0 0 C0.969375 0.165 1.93875 0.33 2.9375 0.5 C7.29487763 1.13396273 11.60630704 1.0896672 16 1 C15.67 2.32 15.34 3.64 15 5 C14.67 4.34 14.34 3.68 14 3 C7.565 3.495 7.565 3.495 1 4 C0.67 5.32 0.34 6.64 0 8 C3.83724172 8.90413673 7.37502274 9.10576898 11.3125 9.0625 C12.38113281 9.05347656 13.44976562 9.04445313 14.55078125 9.03515625 C15.76314453 9.01775391 15.76314453 9.01775391 17 9 C17 8.01 17 7.02 17 6 C18.5 7.375 18.5 7.375 20 9 C20 9.66 20 10.32 20 11 C17.4580411 11.05434116 14.91726318 11.0938339 12.375 11.125 C11.66214844 11.14175781 10.94929687 11.15851562 10.21484375 11.17578125 C5.7387836 11.21684602 2.22050722 10.69086567 -2 9 C-2 7.02 -2 5.04 -2 3 C-1.34 3 -0.68 3 0 3 C0 2.01 0 1.02 0 0 Z " fill="#578AC0" transform="translate(134,49)"/>
<path d="M0 0 C0.66 0 1.32 0 2 0 C2 1.32 2 2.64 2 4 C4.475 4.99 4.475 4.99 7 6 C7 6.66 7 7.32 7 8 C7.804375 8.309375 8.60875 8.61875 9.4375 8.9375 C12 10 12 10 13 11 C13.14115161 13.67058851 13.04247107 16.32432238 13 19 C12.34 19 11.68 19 11 19 C10.855625 18.154375 10.71125 17.30875 10.5625 16.4375 C8.85320005 12.6770401 7.66590028 11.81964556 4.375 9.5 C1.93359375 7.74609375 1.93359375 7.74609375 0 6 C-0.5625 2.5625 -0.5625 2.5625 0 0 Z " fill="#79A1CF" transform="translate(257,38)"/>
<path d="M0 0 C0.66 0 1.32 0 2 0 C1.67 3.63 1.34 7.26 1 11 C0.34 11 -0.32 11 -1 11 C-1 11.99 -1 12.98 -1 14 C-1.66 14 -2.32 14 -3 14 C-3.12375 14.61875 -3.2475 15.2375 -3.375 15.875 C-4 18 -4 18 -6 20 C-7.32 20 -8.64 20 -10 20 C-9.67 19.34 -9.34 18.68 -9 18 C-8.34 18.33 -7.68 18.66 -7 19 C-7 18.34 -7 17.68 -7 17 C-6.34 17 -5.68 17 -5 17 C-5.061875 16.360625 -5.12375 15.72125 -5.1875 15.0625 C-4.85161929 9.57644839 -3.03822491 4.55733736 0 0 Z " fill="#83A9D3" transform="translate(437,48)"/>
<path d="M0 0 C6 2 12 4 18 6 C17.67 6.66 17.34 7.32 17 8 C14.36 7.67 11.72 7.34 9 7 C9.33 7.99 9.66 8.98 10 10 C8.35 10 6.7 10 5 10 C5 9.34 5 8.68 5 8 C5.99 8 6.98 8 8 8 C8 7.01 8 6.02 8 5 C7.071875 4.87625 6.14375 4.7525 5.1875 4.625 C2 4 2 4 -1 2 C-0.67 1.34 -0.34 0.68 0 0 Z " fill="#C7D3DE" transform="translate(106,35)"/>
<path d="M0 0 C5.53618421 -0.25164474 5.53618421 -0.25164474 7.8359375 0.99609375 C13.54631603 3.64513217 22.01856481 2.32920782 28 1 C27.67 1.66 27.34 2.32 27 3 C15.10172591 6.96609136 -1.57448457 3.6088875 -14 3 C-14 2.67 -14 2.34 -14 2 C-9.38 2 -4.76 2 0 2 C0 1.34 0 0.68 0 0 Z " fill="#709EC9" transform="translate(154,58)"/>
<path d="M0 0 C8.74507107 -0.10621544 17.30019136 -0.01286753 26 1 C26 1.66 26 2.32 26 3 C27.32 3 28.64 3 30 3 C30 4.98 30 6.96 30 9 C29.67 9 29.34 9 29 9 C29 7.35 29 5.7 29 4 C25.50007304 3.20293232 22.2857769 2.88136973 18.69921875 2.90234375 C17.72275391 2.90556641 16.74628906 2.90878906 15.74023438 2.91210938 C14.22913086 2.92467773 14.22913086 2.92467773 12.6875 2.9375 C11.66076172 2.94201172 10.63402344 2.94652344 9.57617188 2.95117188 C7.05072118 2.96291816 4.52539095 2.97934435 2 3 C2 2.34 2 1.68 2 1 C1.34 0.67 0.68 0.34 0 0 Z " fill="#D3DBE3" transform="translate(35,21)"/>
<path d="M0 0 C0.68191406 -0.00386719 1.36382812 -0.00773437 2.06640625 -0.01171875 C6.51555248 -0.00324419 10.73458055 0.40281612 15.125 1.125 C15.125 1.455 15.125 1.785 15.125 2.125 C14.14104248 2.16258423 14.14104248 2.16258423 13.13720703 2.20092773 C10.17459817 2.3167326 7.21231969 2.43952886 4.25 2.5625 C3.21746094 2.60181641 2.18492188 2.64113281 1.12109375 2.68164062 C0.13496094 2.72353516 -0.85117187 2.76542969 -1.8671875 2.80859375 C-2.77839355 2.84525146 -3.68959961 2.88190918 -4.62841797 2.91967773 C-6.90983481 2.99077065 -6.90983481 2.99077065 -8.875 4.125 C-10.87460012 4.164992 -12.87547242 4.16846799 -14.875 4.125 C-12.875 1.125 -12.875 1.125 -10.7421875 0.4453125 C-7.1547691 0.04453824 -3.6043052 -0.02021106 0 0 Z " fill="#5185BF" transform="translate(39.875,17.875)"/>
<path d="M0 0 C0.33 0.66 0.66 1.32 1 2 C0.28150269 3.92475499 -0.52537742 5.81692212 -1.375 7.6875 C-3.35367369 12.24228624 -4.66319997 16.06026628 -5 21 C-4.34 21.33 -3.68 21.66 -3 22 C-4.32 22 -5.64 22 -7 22 C-7.43207074 14.19072152 -7.13786579 7.58613233 -1.8125 1.5 C-1.214375 1.005 -0.61625 0.51 0 0 Z " fill="#7EA5D1" transform="translate(335,37)"/>
<path d="M0 0 C0.99 0 1.98 0 3 0 C3 0.99 3 1.98 3 3 C3.66 3 4.32 3 5 3 C5.33 7.29 5.66 11.58 6 16 C4.35 15.67 2.7 15.34 1 15 C1 13.02 1 11.04 1 9 C1.66 9 2.32 9 3 9 C3 7.68 3 6.36 3 5 C2.01 5 1.02 5 0 5 C0 3.35 0 1.7 0 0 Z " fill="#82A8D2" transform="translate(317,43)"/>
<path d="M0 0 C0.99 0 1.98 0 3 0 C3 0.99 3 1.98 3 3 C3.66 3 4.32 3 5 3 C5.33 7.29 5.66 11.58 6 16 C4.35 15.67 2.7 15.34 1 15 C1 13.02 1 11.04 1 9 C1.66 9 2.32 9 3 9 C3 7.68 3 6.36 3 5 C2.01 5 1.02 5 0 5 C0 3.35 0 1.7 0 0 Z " fill="#84A9D3" transform="translate(386,43)"/>
<path d="M0 0 C0.66 0 1.32 0 2 0 C1.690625 0.94875 1.38125 1.8975 1.0625 2.875 C-0.27928271 7.50938425 -0.63342007 12.20552041 -1 17 C-2.66611905 17.042721 -4.33382885 17.04063832 -6 17 C-7 16 -7 16 -7.09765625 13.49609375 C-7.08605469 12.48675781 -7.07445312 11.47742188 -7.0625 10.4375 C-7.05347656 9.42558594 -7.04445313 8.41367187 -7.03515625 7.37109375 C-7.02355469 6.58863281 -7.01195312 5.80617188 -7 5 C-6.01 5.495 -6.01 5.495 -5 6 C-5 8.31 -5 10.62 -5 13 C-4.01 12.67 -3.02 12.34 -2 12 C-2.02320313 11.38511719 -2.04640625 10.77023438 -2.0703125 10.13671875 C-2.08835937 9.32847656 -2.10640625 8.52023438 -2.125 7.6875 C-2.14820313 6.88699219 -2.17140625 6.08648437 -2.1953125 5.26171875 C-2 3 -2 3 0 0 Z " fill="#C8D8EB" transform="translate(329,42)"/>
<path d="M0 0 C4.29 0 8.58 0 13 0 C12 5 12 5 9.5 6.75 C5.31977476 8.24293759 1.40777747 8.71594323 -3 9 C-2 7 -2 7 0.14453125 6.18359375 C1.02496094 5.93738281 1.90539062 5.69117187 2.8125 5.4375 C3.68519531 5.18871094 4.55789062 4.93992187 5.45703125 4.68359375 C7.63298581 4.09865973 9.81146376 3.53565572 12 3 C12 2.34 12 1.68 12 1 C11.32453125 1.15597656 10.6490625 1.31195313 9.953125 1.47265625 C9.06109375 1.66730469 8.1690625 1.86195312 7.25 2.0625 C6.36828125 2.25972656 5.4865625 2.45695312 4.578125 2.66015625 C2.01320972 2.99825872 0.42908361 2.81158635 -2 2 C-1.34 2 -0.68 2 0 2 C0 1.34 0 0.68 0 0 Z " fill="#83A9D1" transform="translate(238,59)"/>
<path d="M0 0 C2.64 0 5.28 0 8 0 C8.8125 3.1875 8.8125 3.1875 9 7 C6.625 9.875 6.625 9.875 4 12 C3.67 12.33 3.34 12.66 3 13 C1.33382885 13.04063832 -0.33388095 13.042721 -2 13 C-2 12.01 -2 11.02 -2 10 C-0.8553125 9.5978125 -0.8553125 9.5978125 0.3125 9.1875 C2.93603434 8.0282639 4.27119728 7.24744354 6 5 C6.71447643 2.89667109 6.71447643 2.89667109 7 1 C4.69 1 2.38 1 0 1 C0 0.67 0 0.34 0 0 Z " fill="#D8E4F1" transform="translate(419,44)"/>
<path d="M0 0 C1.32 0.33 2.64 0.66 4 1 C3.01 1 2.02 1 1 1 C1.66 1.99 2.32 2.98 3 4 C3.30078125 6.41015625 3.30078125 6.41015625 3.3125 9.0625 C3.33763672 10.37927734 3.33763672 10.37927734 3.36328125 11.72265625 C3.18345703 12.84994141 3.18345703 12.84994141 3 14 C0 16 0 16 -2.1875 15.625 C-2.785625 15.41875 -3.38375 15.2125 -4 15 C-3.01 15 -2.02 15 -1 15 C-0.80426392 13.56359829 -0.61872184 12.12580496 -0.4375 10.6875 C-0.28087891 9.48673828 -0.28087891 9.48673828 -0.12109375 8.26171875 C0.14755178 5.83182884 0.14755178 5.83182884 -1 3 C-2.65 3.33 -4.3 3.66 -6 4 C-6 3.34 -6 2.68 -6 2 C-4.02 2 -2.04 2 0 2 C0 1.34 0 0.68 0 0 Z " fill="#A0BBD4" transform="translate(159,40)"/>
<path d="M0 0 C5.23880078 0.55145271 9.97350697 1.42922093 15 3 C15 3.99 15 4.98 15 6 C9.33557626 5.63495936 4.99296295 4.9445679 0 2 C0 1.34 0 0.68 0 0 Z " fill="#9DB8D3" transform="translate(115,42)"/>
<path d="M0 0 C4.571279 0.54855348 8.67435795 1.41744803 13 3 C13 4.32 13 5.64 13 7 C11.68 7 10.36 7 9 7 C9 6.34 9 5.68 9 5 C6.03 4.67 3.06 4.34 0 4 C0 2.68 0 1.36 0 0 Z " fill="#82A7CB" transform="translate(86,32)"/>
<path d="M0 0 C4.71403788 0.47939368 8.66579301 0.96834048 13 3 C13 4.32 13 5.64 13 7 C8.71 6.01 4.42 5.02 0 4 C0 2.68 0 1.36 0 0 Z " fill="#6C98C5" transform="translate(65,26)"/>
<path d="M0 0 C5.50808397 0.59015185 10.64878069 1.56663769 16 3 C16 3.66 16 4.32 16 5 C16.66 5.33 17.32 5.66 18 6 C16.68 6 15.36 6 14 6 C13.67 6.66 13.34 7.32 13 8 C13 7.34 13 6.68 13 6 C12.34 5.9175 11.68 5.835 11 5.75 C7.00960837 4.75240209 3.61450357 2.92833317 0 1 C0 0.67 0 0.34 0 0 Z " fill="#87AACF" transform="translate(45,52)"/>
<path d="M0 0 C0.99 0.33 1.98 0.66 3 1 C2.67 5.62 2.34 10.24 2 15 C5.3 14.67 8.6 14.34 12 14 C8.7169902 17.2830098 4.49701411 17.19284362 0 18 C0 12.06 0 6.12 0 0 Z " fill="#C9D9E9" transform="translate(211,16)"/>
<path d="M0 0 C0.99 0 1.98 0 3 0 C3.33 0.66 3.66 1.32 4 2 C7.02934491 2.65772428 7.02934491 2.65772428 10 3 C8.68 3.33 7.36 3.66 6 4 C6 4.66 6 5.32 6 6 C5.34 6 4.68 6 4 6 C4 6.66 4 7.32 4 8 C1.69 8 -0.62 8 -3 8 C-3 7.01 -3 6.02 -3 5 C-2.01 5.33 -1.02 5.66 0 6 C0 4.02 0 2.04 0 0 Z " fill="#CEDDED" transform="translate(356,52)"/>
<path d="M0 0 C1.69140625 1.515625 1.69140625 1.515625 3 3 C2.36191406 2.98839844 1.72382813 2.97679687 1.06640625 2.96484375 C0.24011719 2.95582031 -0.58617187 2.94679688 -1.4375 2.9375 C-2.26121094 2.92589844 -3.08492187 2.91429687 -3.93359375 2.90234375 C-5.99163938 2.76732652 -5.99163938 2.76732652 -7 4 C-8.99958364 4.04080783 -11.00045254 4.04254356 -13 4 C-13 4.66 -13 5.32 -13 6 C-15.64 6 -18.28 6 -21 6 C-18.18372735 4.51470552 -15.40632675 3.40569968 -12.375 2.4375 C-3.80353982 -0.31049305 -3.80353982 -0.31049305 0 0 Z " fill="#719CC9" transform="translate(246,26)"/>
<path d="M0 0 C1.65 0.33 3.3 0.66 5 1 C4.67 4.63 4.34 8.26 4 12 C3.01 11.67 2.02 11.34 1 11 C1.33 8.36 1.66 5.72 2 3 C0.68 2.67 -0.64 2.34 -2 2 C-1.34 1.34 -0.68 0.68 0 0 Z " fill="#84A9D3" transform="translate(405,47)"/>
<path d="M0 0 C1.32 0 2.64 0 4 0 C4 0.99 4 1.98 4 3 C3.01 3 2.02 3 1 3 C1.33 5.64 1.66 8.28 2 11 C-1.875 10.125 -1.875 10.125 -3 9 C-2.4 2.4 -2.4 2.4 0 0 Z " fill="#8EB0D7" transform="translate(355,48)"/>
<path d="M0 0 C4.571279 0.54855348 8.67435795 1.41744803 13 3 C13 3.99 13 4.98 13 6 C8.71 5.34 4.42 4.68 0 4 C0 2.68 0 1.36 0 0 Z " fill="#85A8CC" transform="translate(101,37)"/>
<path d="M0 0 C0.99 0 1.98 0 3 0 C3.36923077 5.41538462 3.36923077 5.41538462 1.5 8.375 C1.005 8.91125 0.51 9.4475 0 10 C-1.65 9.67 -3.3 9.34 -5 9 C-4.319375 8.1646875 -4.319375 8.1646875 -3.625 7.3125 C-1.96266232 4.94686561 -0.97855457 2.70984342 0 0 Z " fill="#7EA5D1" transform="translate(398,48)"/>
<path d="M0 0 C-2.64738916 1.4606285 -3.89448334 2 -7 2 C-7 2.66 -7 3.32 -7 4 C-6.01 4 -5.02 4 -4 4 C-4 4.66 -4 5.32 -4 6 C-2.68 6.33 -1.36 6.66 0 7 C-1.89575251 7.02721176 -3.79161979 7.04649136 -5.6875 7.0625 C-7.27111328 7.07990234 -7.27111328 7.07990234 -8.88671875 7.09765625 C-11.72410262 7.00865425 -14.2438919 6.64939838 -17 6 C-17 5.67 -17 5.34 -17 5 C-14.36 5 -11.72 5 -9 5 C-8.896875 4.360625 -8.79375 3.72125 -8.6875 3.0625 C-8.460625 2.381875 -8.23375 1.70125 -8 1 C-5.07175348 0.02391783 -3.04386724 -0.08226668 0 0 Z " fill="#709BC6" transform="translate(201,50)"/>
<path d="M0 0 C1.32 0 2.64 0 4 0 C4 1.65 4 3.3 4 5 C1.75438718 5.86762314 -0.49526255 6.7192103 -2.75 7.5625 C-3.70132813 7.9327832 -3.70132813 7.9327832 -4.671875 8.31054688 C-8.11009179 9.58197079 -10.52168882 10.46686355 -14 9 C-7.375 6 -7.375 6 -4 6 C-4 5.34 -4 4.68 -4 4 C-3.195625 3.87625 -2.39125 3.7525 -1.5625 3.625 C-0.716875 3.41875 0.12875 3.2125 1 3 C1.33 2.34 1.66 1.68 2 1 C1.34 0.67 0.68 0.34 0 0 Z " fill="#C7D8EB" transform="translate(249,29)"/>
<path d="M0 0 C7.12608999 0.29754029 12.6672508 1.71125344 19 5 C19 5.33 19 5.66 19 6 C16.69 6.33 14.38 6.66 12 7 C11.67 6.01 11.34 5.02 11 4 C7.34543185 3.24758891 3.68266103 2.59950296 0 2 C0 1.34 0 0.68 0 0 Z " fill="#CAD5DF" transform="translate(65,30)"/>
<path d="M0 0 C6.80203375 -0.37634203 11.75690073 0.22528921 18 3 C18 3.33 18 3.66 18 4 C14.04 4 10.08 4 6 4 C6 3.34 6 2.68 6 2 C4.02 2 2.04 2 0 2 C0 1.34 0 0.68 0 0 Z " fill="#6996C6" transform="translate(55,20)"/>
<path d="M0 0 C0.99 0 1.98 0 3 0 C3 3.3 3 6.6 3 10 C3.99 10.33 4.98 10.66 6 11 C3.625 11.125 3.625 11.125 1 11 C-1 9 -1 9 -1.1875 5.5 C-1 2 -1 2 0 0 Z " fill="#90B2D7" transform="translate(338,50)"/>
<path d="M0 0 C1.65 0 3.3 0 5 0 C5 3.63 5 7.26 5 11 C3.68 11 2.36 11 1 11 C0.67 7.37 0.34 3.74 0 0 Z " fill="#86ABD4" transform="translate(289,48)"/>
<path d="M0 0 C2.31 0.33 4.62 0.66 7 1 C7 3.64 7 6.28 7 9 C5.02 9.99 5.02 9.99 3 11 C3 7.7 3 4.4 3 1 C2.01 0.67 1.02 0.34 0 0 Z " fill="#B4CAE4" transform="translate(265,30)"/>
<path d="M0 0 C0.29162929 4.95769796 0.12940055 8.02806853 -3 12 C-3.66 12 -4.32 12 -5 12 C-4.88648483 10.18674449 -4.75887039 8.37436643 -4.625 6.5625 C-4.55539062 5.55316406 -4.48578125 4.54382812 -4.4140625 3.50390625 C-4.27742188 2.67761719 -4.14078125 1.85132813 -4 1 C-2 0 -2 0 0 0 Z " fill="#9AB8DB" transform="translate(277,47)"/>
<path d="M0 0 C0.99 0 1.98 0 3 0 C2.87431641 0.93972656 2.87431641 0.93972656 2.74609375 1.8984375 C2.64425781 2.71570312 2.54242188 3.53296875 2.4375 4.375 C2.33308594 5.18710937 2.22867187 5.99921875 2.12109375 6.8359375 C1.81762672 9.04899186 1.81762672 9.04899186 3 11 C1.35 11 -0.3 11 -2 11 C-2.25 3.375 -2.25 3.375 0 0 Z " fill="#8EB0D6" transform="translate(376,48)"/>
<path d="M0 0 C0.33 0.66 0.66 1.32 1 2 C1.66 2 2.32 2 3 2 C2.32902328 6.19360449 0.1441606 9.40334352 -2 13 C-3.32 12.34 -4.64 11.68 -6 11 C-5.01 11 -4.02 11 -3 11 C-3 9.68 -3 8.36 -3 7 C-2.34 7 -1.68 7 -1 7 C-0.67 4.69 -0.34 2.38 0 0 Z " fill="#97B6DA" transform="translate(347,48)"/>
<path d="M0 0 C0 1.65 0 3.3 0 5 C-0.66 5 -1.32 5 -2 5 C-2 5.66 -2 6.32 -2 7 C-1.34 7 -0.68 7 0 7 C0 7.66 0 8.32 0 9 C-1.98 9 -3.96 9 -6 9 C-6.3125 6.1875 -6.3125 6.1875 -6 3 C-2.1 0 -2.1 0 0 0 Z " fill="#C4D6EA" transform="translate(432,60)"/>
<path d="M0 0 C0.66 0 1.32 0 2 0 C4.09230769 4.43076923 4.09230769 4.43076923 3.625 7.3125 C3.41875 7.869375 3.2125 8.42625 3 9 C3.66 9 4.32 9 5 9 C4.67 9.66 4.34 10.32 4 11 C2.35 11 0.7 11 -1 11 C-0.67 7.37 -0.34 3.74 0 0 Z " fill="#D5E2F0" transform="translate(410,48)"/>
<path d="M0 0 C0.33 0 0.66 0 1 0 C1 2.31 1 4.62 1 7 C3.3078491 8.15392455 5.47230331 8.53437166 8 9 C7.67 9.99 7.34 10.98 7 12 C3.37 12 -0.26 12 -4 12 C-3.67 11.34 -3.34 10.68 -3 10 C-2.01 10 -1.02 10 0 10 C0 6.7 0 3.4 0 0 Z " fill="#DBE6F2" transform="translate(391,48)"/>
<path d="M0 0 C0.33 0.99 0.66 1.98 1 3 C1.66 3 2.32 3 3 3 C3 2.34 3 1.68 3 1 C3.99 1 4.98 1 6 1 C5.25 5.75 5.25 5.75 3 8 C-0.625 8.125 -0.625 8.125 -4 8 C-3.67 7.34 -3.34 6.68 -3 6 C-2.01 6 -1.02 6 0 6 C0 4.02 0 2.04 0 0 Z " fill="#D1DFEE" transform="translate(309,52)"/>
<path d="M0 0 C1.65 0 3.3 0 5 0 C4.34 2.31 3.68 4.62 3 7 C1.68 7.33 0.36 7.66 -1 8 C-0.67 5.36 -0.34 2.72 0 0 Z " fill="#F9FBFD" transform="translate(332,49)"/>
<path d="M0 0 C0.66 1.32 1.32 2.64 2 4 C-2.97011673 5.99118241 -7.12333135 6.24845695 -12.375 6.125 C-13.47908203 6.11146484 -13.47908203 6.11146484 -14.60546875 6.09765625 C-16.4037888 6.07430144 -18.20193911 6.03843836 -20 6 C-20 5.67 -20 5.34 -20 5 C-19.29875 4.93941406 -18.5975 4.87882812 -17.875 4.81640625 C-12.23182765 4.31802826 -6.61635883 3.74178324 -1 3 C-0.67 2.01 -0.34 1.02 0 0 Z " fill="#B3C8DD" transform="translate(185,36)"/>
<path d="M0 0 C5.445 1.485 5.445 1.485 11 3 C11 3.99 11 4.98 11 6 C6.24792529 6.43200679 3.21789302 4.98489083 -1 3 C-0.67 2.01 -0.34 1.02 0 0 Z " fill="#9FBCD8" transform="translate(115,35)"/>
<path d="M0 0 C4.29 0.33 8.58 0.66 13 1 C9 3 9 3 6 3 C6 3.66 6 4.32 6 5 C5.34 5 4.68 5 4 5 C3.67 5.66 3.34 6.32 3 7 C2.67 5.35 2.34 3.7 2 2 C1.34 2 0.68 2 0 2 C0 1.34 0 0.68 0 0 Z " fill="#B5C9DD" transform="translate(199,73)"/>
<path d="M0 0 C6.00825758 0.39510084 10.54506408 1.48233727 16 4 C18.77888613 4.69140522 18.77888613 4.69140522 21 5 C21 5.33 21 5.66 21 6 C18.03 6 15.06 6 12 6 C12 5.34 12 4.68 12 4 C10.9790625 4.061875 10.9790625 4.061875 9.9375 4.125 C6.40075832 3.97450035 3.36676967 3.05624147 0 2 C0 1.34 0 0.68 0 0 Z " fill="#6493C4" transform="translate(100,71)"/>
<path d="M0 0 C0.66 0.33 1.32 0.66 2 1 C2 2.65 2 4.3 2 6 C2.66 6.33 3.32 6.66 4 7 C2.02 7.99 2.02 7.99 0 9 C0 9.66 0 10.32 0 11 C-2.97 11 -5.94 11 -9 11 C-6.42595029 7.13892543 -4.38979741 7.05680308 0 6 C0 4.02 0 2.04 0 0 Z " fill="#BBCFE7" transform="translate(266,51)"/>
<path d="M0 0 C0.99 0 1.98 0 3 0 C3.33 1.65 3.66 3.3 4 5 C4.66 5 5.32 5 6 5 C6 6.32 6 7.64 6 9 C5.34 9 4.68 9 4 9 C4 9.66 4 10.32 4 11 C3.01 11.33 2.02 11.66 1 12 C0.875 4.375 0.875 4.375 2 1 C1.34 0.67 0.68 0.34 0 0 Z " fill="#D1DFEE" transform="translate(437,47)"/>
<path d="M0 0 C0.99 0 1.98 0 3 0 C3 2.97 3 5.94 3 9 C1.35 8.67 -0.3 8.34 -2 8 C-2 6.02 -2 4.04 -2 2 C-1.34 2 -0.68 2 0 2 C0 1.34 0 0.68 0 0 Z " fill="#8CAFD6" transform="translate(307,50)"/>
<path d="M0 0 C4.86896303 0.59619955 9.32790951 1.56976822 14 3 C14 3.66 14 4.32 14 5 C15.65 5.33 17.3 5.66 19 6 C16.34542308 7.32728846 13.9425963 7.69347955 11 8 C10.34 7.34 9.68 6.68 9 6 C9.66 6 10.32 6 11 6 C11 5.34 11 4.68 11 4 C10.29875 3.87625 9.5975 3.7525 8.875 3.625 C5.82343613 2.96161655 2.94659062 2.02788045 0 1 C0 0.67 0 0.34 0 0 Z " fill="#B7C9DB" transform="translate(33,46)"/>
<path d="M0 0 C1.10844919 3.32534757 0.84454356 5.62182575 0 9 C1.98 8.34 3.96 7.68 6 7 C6 8.32 6 9.64 6 11 C1.545 11.495 1.545 11.495 -3 12 C-2.34 11.34 -1.68 10.68 -1 10 C-0.95758277 7.66705225 -0.95907063 5.33297433 -1 3 C-0.67 2.01 -0.34 1.02 0 0 Z " fill="#BED1E7" transform="translate(331,48)"/>
<path d="M0 0 C0.66 0 1.32 0 2 0 C1.67 2.97 1.34 5.94 1 9 C1.66 9.33 2.32 9.66 3 10 C0.03 9.505 0.03 9.505 -3 9 C-2.44271087 5.65626525 -1.64826111 2.96687001 0 0 Z " fill="#81A7D2" transform="translate(429,47)"/>
<path d="M0 0 C3.96 0 7.92 0 12 0 C11.67 0.66 11.34 1.32 11 2 C8.4375 2.625 8.4375 2.625 6 3 C6.99 3.33 7.98 3.66 9 4 C8.67 4.99 8.34 5.98 8 7 C8 6.34 8 5.68 8 5 C6.35 5.66 4.7 6.32 3 7 C3 5.35 3 3.7 3 2 C2.01 2 1.02 2 0 2 C0 1.34 0 0.68 0 0 Z " fill="#CBDBEC" transform="translate(398,46)"/>
<path d="M0 0 C0.66 0 1.32 0 2 0 C2.19294408 4.82360189 1.75747614 8.49646738 0 13 C-0.66 13 -1.32 13 -2 13 C-2.16682272 8.07872966 -2.24828052 4.49656104 0 0 Z " fill="#82A8D2" transform="translate(350,37)"/>
<path d="M0 0 C1.60379341 -0.05416188 3.20811406 -0.09286638 4.8125 -0.125 C5.70582031 -0.14820312 6.59914063 -0.17140625 7.51953125 -0.1953125 C10 0 10 0 13 2 C12.67 2.99 12.34 3.98 12 5 C11.01 5 10.02 5 9 5 C9 4.01 9 3.02 9 2 C6.03 2 3.06 2 0 2 C0 1.34 0 0.68 0 0 Z " fill="#C8D9EB" transform="translate(345,29)"/>
<path d="M0 0 C0 0.66 0 1.32 0 2 C-3.63423209 4.32590854 -6.77088331 4.16265833 -11 4 C-10.67 3.01 -10.34 2.02 -10 1 C-6.78548731 -0.60725635 -3.56387464 -0.05748185 0 0 Z " fill="#4981BC" transform="translate(250,60)"/>
<path d="M0 0 C6.48707154 1.6813917 12.7677635 3.53062327 19 6 C15.34142468 7.31534494 12.91973519 6.65468309 9.25 5.5625 C8.26515625 5.27503906 7.2803125 4.98757812 6.265625 4.69140625 C5.51796875 4.46324219 4.7703125 4.23507813 4 4 C4 3.34 4 2.68 4 2 C2.68 1.67 1.36 1.34 0 1 C0 0.67 0 0.34 0 0 Z " fill="#6F9AC6" transform="translate(63,58)"/>
<path d="M0 0 C0.33 1.32 0.66 2.64 1 4 C1.66 4 2.32 4 3 4 C3.33 3.01 3.66 2.02 4 1 C4.33 1 4.66 1 5 1 C5.04254356 2.99954746 5.04080783 5.00041636 5 7 C4 8 4 8 0.4375 8.0625 C-0.696875 8.041875 -1.83125 8.02125 -3 8 C-2.67 6.68 -2.34 5.36 -2 4 C-1.67 4.66 -1.34 5.32 -1 6 C-0.01 6.33 0.98 6.66 2 7 C2 6.34 2 5.68 2 5 C1.34 5 0.68 5 0 5 C0 3.35 0 1.7 0 0 Z " fill="#C9DAEC" transform="translate(369,52)"/>
<path d="M0 0 C1.98 0 3.96 0 6 0 C6.33 3.3 6.66 6.6 7 10 C6.01 10 5.02 10 4 10 C4 9.01 4 8.02 4 7 C3.01 7 2.02 7 1 7 C1.33 5.68 1.66 4.36 2 3 C2.66 3 3.32 3 4 3 C4.33 2.34 4.66 1.68 5 1 C3.35 1 1.7 1 0 1 C0 0.67 0 0.34 0 0 Z " fill="#CADAEC" transform="translate(359,44)"/>
<path d="M0 0 C1.65 0 3.3 0 5 0 C4.67 1.32 4.34 2.64 4 4 C4 3.01 4 2.02 4 1 C3.01 1 2.02 1 1 1 C1 2.65 1 4.3 1 6 C1.99 6 2.98 6 4 6 C4 7.32 4 8.64 4 10 C2.35 10.33 0.7 10.66 -1 11 C-0.67 7.37 -0.34 3.74 0 0 Z " fill="#D1DFEF" transform="translate(316,42)"/>
<path d="M0 0 C0.969375 0.165 1.93875 0.33 2.9375 0.5 C7.29487763 1.13396273 11.60630704 1.0896672 16 1 C15.67 2.32 15.34 3.64 15 5 C14.67 4.34 14.34 3.68 14 3 C11.87465341 3.14069196 9.74972471 3.28770921 7.625 3.4375 C6.44164062 3.51871094 5.25828125 3.59992187 4.0390625 3.68359375 C1.08481099 3.81084936 1.08481099 3.81084936 -1 5 C-0.67 3.35 -0.34 1.7 0 0 Z " fill="#4E84BE" transform="translate(134,49)"/>
<path d="M0 0 C1.65 0 3.3 0 5 0 C5.29296875 6.0546875 5.29296875 6.0546875 5 8 C4.01 8.66 3.02 9.32 2 10 C2 7.36 2 4.72 2 2 C1.34 2 0.68 2 0 2 C0 1.34 0 0.68 0 0 Z " fill="#6C98CA" transform="translate(281,46)"/>
<path d="M0 0 C0.99 0.33 1.98 0.66 3 1 C2.34 1 1.68 1 1 1 C0.34 3.97 -0.32 6.94 -1 10 C-1.33 8.68 -1.66 7.36 -2 6 C-2.66 6 -3.32 6 -4 6 C-3.67 8.31 -3.34 10.62 -3 13 C-3.66 13 -4.32 13 -5 13 C-5.61538462 5.73846154 -5.61538462 5.73846154 -2.5 2 C-1.675 1.34 -0.85 0.68 0 0 Z " fill="#A9C3E0" transform="translate(261,32)"/>
<path d="M0 0 C0.66 0.33 1.32 0.66 2 1 C1.67 1.66 1.34 2.32 1 3 C7.93 3.495 7.93 3.495 15 4 C15 4.33 15 4.66 15 5 C9.39 5 3.78 5 -2 5 C-1.34 3.35 -0.68 1.7 0 0 Z " fill="#CDD8E2" transform="translate(22,20)"/>
<path d="M0 0 C1.20272819 2.40545638 1.10071472 3.94996953 1.0625 6.625 C1.05347656 7.44226562 1.04445313 8.25953125 1.03515625 9.1015625 C1.02355469 9.72804688 1.01195312 10.35453125 1 11 C0.01 11 -0.98 11 -2 11 C-2 10.34 -2 9.68 -2 9 C-2.66 9 -3.32 9 -4 9 C-4 7.68 -4 6.36 -4 5 C-3.34 5 -2.68 5 -2 5 C-1.7834375 4.0409375 -1.7834375 4.0409375 -1.5625 3.0625 C-1 1 -1 1 0 0 Z " fill="#7CA4D0" transform="translate(417,48)"/>
<path d="M0 0 C1.65 0.33 3.3 0.66 5 1 C3.73058503 4.91402949 2.48832306 6.79072873 -1 9 C-0.67 6.03 -0.34 3.06 0 0 Z " fill="#EBF1F8" transform="translate(432,46)"/>
<path d="M0 0 C-0.33 0.99 -0.66 1.98 -1 3 C-0.34 3 0.32 3 1 3 C1 4.98 1 6.96 1 9 C0.67 9 0.34 9 0 9 C0 7.35 0 5.7 0 4 C-1.32 4 -2.64 4 -4 4 C-4 3.34 -4 2.68 -4 2 C-5.32 2 -6.64 2 -8 2 C-8 1.34 -8 0.68 -8 0 C-4.71303767 -0.79953138 -3.28976808 -1.09658936 0 0 Z " fill="#79A1CB" transform="translate(150,46)"/>
<path d="M0 0 C0.33 0.66 0.66 1.32 1 2 C-6.05112439 4.21211746 -12.64657821 4.20177072 -20 4 C-20 3.67 -20 3.34 -20 3 C-19.28972656 2.93941406 -18.57945312 2.87882812 -17.84765625 2.81640625 C-16.46900391 2.69072266 -16.46900391 2.69072266 -15.0625 2.5625 C-14.14597656 2.48128906 -13.22945312 2.40007813 -12.28515625 2.31640625 C-10.03840268 2.23955024 -10.03840268 2.23955024 -9 1 C-7.48530552 0.76807135 -5.96245438 0.58784762 -4.4375 0.4375 C-3.61121094 0.35371094 -2.78492188 0.26992188 -1.93359375 0.18359375 C-0.97646484 0.09271484 -0.97646484 0.09271484 0 0 Z " fill="#DCE7F1" transform="translate(183,37)"/>
<path d="M0 0 C2.4375 0.375 2.4375 0.375 5 1 C5.33 1.66 5.66 2.32 6 3 C-0.6 3 -7.2 3 -14 3 C-14 2.67 -14 2.34 -14 2 C-9.38 2 -4.76 2 0 2 C0 1.34 0 0.68 0 0 Z " fill="#83A9CD" transform="translate(154,58)"/>
<path d="M0 0 C0.66 0 1.32 0 2 0 C2 2.64 2 5.28 2 8 C2.99 7.34 3.98 6.68 5 6 C4.67 8.31 4.34 10.62 4 13 C1.03 12.505 1.03 12.505 -2 12 C-1.34 11.34 -0.68 10.68 0 10 C0.24287489 7.55987051 0.24287489 7.55987051 0.125 4.875 C0.10695313 3.96492188 0.08890625 3.05484375 0.0703125 2.1171875 C0.04710937 1.41851562 0.02390625 0.71984375 0 0 Z " fill="#B8CEE6" transform="translate(430,46)"/>
<path d="M0 0 C0.99 0 1.98 0 3 0 C3 0.66 3 1.32 3 2 C3.99 2.33 4.98 2.66 6 3 C6 3.33 6 3.66 6 4 C4.93458984 4.07347656 4.93458984 4.07347656 3.84765625 4.1484375 C2.92855469 4.22320312 2.00945312 4.29796875 1.0625 4.375 C0.14597656 4.44460937 -0.77054688 4.51421875 -1.71484375 4.5859375 C-2.46894531 4.72257812 -3.22304687 4.85921875 -4 5 C-4.33 5.66 -4.66 6.32 -5 7 C-5.66 6.67 -6.32 6.34 -7 6 C-5 3 -5 3 -2.375 2.3125 C-1.59125 2.209375 -0.8075 2.10625 0 2 C0 1.34 0 0.68 0 0 Z " fill="#6A97C8" transform="translate(210,46)"/>
<path d="M0 0 C-0.99 1.485 -0.99 1.485 -2 3 C-2.99 3 -3.98 3 -5 3 C-5.33 4.32 -5.66 5.64 -6 7 C-6.66 6.67 -7.32 6.34 -8 6 C-8 4.35 -8 2.7 -8 1 C-2.25 -1.125 -2.25 -1.125 0 0 Z " fill="#F7F7F7" transform="translate(39,25)"/>
<path d="M0 0 C2.31 0.33 4.62 0.66 7 1 C6.938125 1.78375 6.87625 2.5675 6.8125 3.375 C6.874375 4.24125 6.93625 5.1075 7 6 C7.99 6.66 8.98 7.32 10 8 C5.17965738 7.58682778 3.09007389 5.61980085 0 2 C0 1.34 0 0.68 0 0 Z " fill="#BACFE2" transform="translate(52,72)"/>
<path d="M0 0 C0.33 0 0.66 0 1 0 C1 1.98 1 3.96 1 6 C3.31 6 5.62 6 8 6 C4.86501708 7.85776765 2.62528568 8.20140476 -1 8 C-1 8.99 -1 9.98 -1 11 C-1.66 10.67 -2.32 10.34 -3 10 C-2.01 6.7 -1.02 3.4 0 0 Z " fill="#C9D9EA" transform="translate(204,57)"/>
<path d="M0 0 C1.18916016 0.01353516 1.18916016 0.01353516 2.40234375 0.02734375 C4.35169281 0.05082988 6.30088575 0.08669863 8.25 0.125 C8.25 0.455 8.25 0.785 8.25 1.125 C7.32058594 1.17398437 6.39117187 1.22296875 5.43359375 1.2734375 C-3.82660933 1.82177146 -3.82660933 1.82177146 -12.75 4.125 C-12.75 3.465 -12.75 2.805 -12.75 2.125 C-8.77389214 -0.58986934 -4.61098023 -0.09940753 0 0 Z " fill="#B9CEE5" transform="translate(38.75,15.875)"/>
<path d="M0 0 C0.99 0 1.98 0 3 0 C2.62403791 2.78211944 2.32681541 4.5879284 0.5625 6.8125 C-1 8 -1 8 -3 8 C-2.37240135 5.07120629 -1.41377341 2.63904371 0 0 Z " fill="#F1F5FA" transform="translate(303,49)"/>
<path d="M0 0 C0.99 0 1.98 0 3 0 C3 3.3 3 6.6 3 10 C2.34 10 1.68 10 1 10 C0.67 10.66 0.34 11.32 0 12 C-1.16063604 7.74433453 -0.76173392 4.3164922 0 0 Z " fill="#7FAACD" transform="translate(59,64)"/>
<path d="M0 0 C0.66 0 1.32 0 2 0 C1.34 3.3 0.68 6.6 0 10 C0.66 10 1.32 10 2 10 C2 10.66 2 11.32 2 12 C0.68 11.67 -0.64 11.34 -2 11 C-2.19622241 6.78121808 -1.80230168 3.82989106 0 0 Z " fill="#7EA5D1" transform="translate(369,47)"/>
<path d="M0 0 C0.66 0.33 1.32 0.66 2 1 C1.34 2.98 0.68 4.96 0 7 C-1.32 7 -2.64 7 -4 7 C-4 5.68 -4 4.36 -4 3 C-3.34 3 -2.68 3 -2 3 C-2 2.34 -2 1.68 -2 1 C-1.34 0.67 -0.68 0.34 0 0 Z " fill="#BFD2E8" transform="translate(421,47)"/>
<path d="M0 0 C0.99 0.33 1.98 0.66 3 1 C3 1.66 3 2.32 3 3 C2.34 3 1.68 3 1 3 C0.87625 3.61875 0.7525 4.2375 0.625 4.875 C0 7 0 7 -2 9 C-3.32 9 -4.64 9 -6 9 C-5.67 8.34 -5.34 7.68 -5 7 C-4.34 7.33 -3.68 7.66 -3 8 C-3 7.34 -3 6.68 -3 6 C-2.34 6 -1.68 6 -1 6 C-1.020625 5.195625 -1.04125 4.39125 -1.0625 3.5625 C-1 1 -1 1 0 0 Z " fill="#96B6D9" transform="translate(433,59)"/>
<path d="M0 0 C1.231394 3.69418201 0.64432764 6.2056261 0 10 C-1.32 9.34 -2.64 8.68 -4 8 C-1.125 1.125 -1.125 1.125 0 0 Z " fill="#6E9ACB" transform="translate(300,49)"/>
<path d="M0 0 C1.32 0.33 2.64 0.66 4 1 C3.9131724 3.12577907 3.8050049 5.25069581 3.6875 7.375 C3.62949219 8.55835938 3.57148438 9.74171875 3.51171875 10.9609375 C3.34285156 11.96382812 3.17398438 12.96671875 3 14 C2.01 14.66 1.02 15.32 0 16 C0.33 15.01 0.66 14.02 1 13 C1.09308544 11.33541327 1.12996185 9.66718003 1.125 8 C1.12886719 6.700625 1.12886719 6.700625 1.1328125 5.375 C1.09594205 2.84988305 1.09594205 2.84988305 0 0 Z " fill="#5691C8" transform="translate(160,41)"/>
<path d="M0 0 C2.64 0.33 5.28 0.66 8 1 C8.33 1.99 8.66 2.98 9 4 C6.36 3.67 3.72 3.34 1 3 C0.67 2.01 0.34 1.02 0 0 Z " fill="#87AACD" transform="translate(115,42)"/>
<path d="M0 0 C1.98 0 3.96 0 6 0 C3.48617788 1.67588141 1.17052712 2.94030311 -1.5625 4.1875 C-2.34753906 4.55230469 -3.13257813 4.91710938 -3.94140625 5.29296875 C-4.62074219 5.52628906 -5.30007812 5.75960937 -6 6 C-6.66 5.67 -7.32 5.34 -8 5 C-7.01 4.67 -6.02 4.34 -5 4 C-5 3.34 -5 2.68 -5 2 C-3.35 2 -1.7 2 0 2 C0 1.34 0 0.68 0 0 Z " fill="#729CCB" transform="translate(234,36)"/>
<path d="M0 0 C5.27315333 0.4452885 10.01770224 1.08373163 15 3 C15 3.66 15 4.32 15 5 C9.33895411 4.50341703 5.12325529 3.45489316 0 1 C0 0.67 0 0.34 0 0 Z " fill="#CEDDED" transform="translate(76,22)"/>
<path d="M0 0 C0 3.59857954 -0.95830515 5.09451118 -3 8 C-3.66 8 -4.32 8 -5 8 C-5 6.02 -5 4.04 -5 2 C-3.35 1.34 -1.7 0.68 0 0 Z " fill="#E9F0F7" transform="translate(375,48)"/>
<path d="M0 0 C3.66881155 0.70554068 6.70450534 2.27735506 10 4 C8.25 5.125 8.25 5.125 6 6 C3.1825554 5.17133982 2.24390498 4.41463847 0.75 1.875 C0.5025 1.25625 0.255 0.6375 0 0 Z " fill="#ABC3DA" transform="translate(18,39)"/>
<path d="M0 0 C0.33 0.66 0.66 1.32 1 2 C0.00390625 4.6015625 0.00390625 4.6015625 -1.4375 7.625 C-1.91058594 8.62789062 -2.38367188 9.63078125 -2.87109375 10.6640625 C-3.24363281 11.43492188 -3.61617188 12.20578125 -4 13 C-5.45696268 8.56066405 -4.06135016 6.12270033 -2 2 C-1.34 1.34 -0.68 0.68 0 0 Z " fill="#729DCD" transform="translate(335,37)"/>
<path d="M0 0 C0.33 0.66 0.66 1.32 1 2 C2.32796291 2.35412344 3.66216607 2.68521554 5 3 C5.99 3.66 6.98 4.32 8 5 C6.02 5.33 4.04 5.66 2 6 C2 5.34 2 4.68 2 4 C1.01 4 0.02 4 -1 4 C-0.67 2.68 -0.34 1.36 0 0 Z " fill="#749EC9" transform="translate(195,33)"/>
<path d="M0 0 C1.2077558 3.62326739 0.54311128 4.64146369 -1 8 C-3.31 7.67 -5.62 7.34 -8 7 C-8 6.01 -8 5.02 -8 4 C-6.02 4.66 -4.04 5.32 -2 6 C-1.855625 5.38125 -1.71125 4.7625 -1.5625 4.125 C-1 2 -1 2 0 0 Z " fill="#95B5D9" transform="translate(368,48)"/>
<path d="M0 0 C1.32 0.33 2.64 0.66 4 1 C4 1.66 4 2.32 4 3 C4.7425 2.938125 5.485 2.87625 6.25 2.8125 C9.45383006 3.03094296 10.64031256 3.90250005 13 6 C11.02 6 9.04 6 7 6 C7 5.34 7 4.68 7 4 C5.68 4 4.36 4 3 4 C3 3.34 3 2.68 3 2 C2.01 2 1.02 2 0 2 C0 1.34 0 0.68 0 0 Z " fill="#CFDDED" transform="translate(24,45)"/>
<path d="M0 0 C2.31 0.33 4.62 0.66 7 1 C6.01 1.495 6.01 1.495 5 2 C5 2.66 5 3.32 5 4 C3.35 4 1.7 4 0 4 C0 2.68 0 1.36 0 0 Z " fill="#91B1CF" transform="translate(101,37)"/>
<path d="M0 0 C0.93065133 2.60582371 1.14917407 3.64198224 0.0625 6.25 C-0.4634375 7.11625 -0.4634375 7.11625 -1 8 C-1.99 8 -2.98 8 -4 8 C-3.40072174 4.64404172 -2.15377564 2.62198774 0 0 Z " fill="#CBDBEA" transform="translate(194,30)"/>
<path d="M0 0 C1.32 0 2.64 0 4 0 C4 1.65 4 3.3 4 5 C1.36 5.33 -1.28 5.66 -4 6 C-4 5.34 -4 4.68 -4 4 C-3.195625 3.87625 -2.39125 3.7525 -1.5625 3.625 C-0.716875 3.41875 0.12875 3.2125 1 3 C1.33 2.34 1.66 1.68 2 1 C1.34 0.67 0.68 0.34 0 0 Z " fill="#A5C0DE" transform="translate(249,29)"/>
<path d="M0 0 C0.66 0 1.32 0 2 0 C2 2.31 2 4.62 2 7 C1.34 7 0.68 7 0 7 C-0.33 6.01 -0.66 5.02 -1 4 C-1.99 4.495 -1.99 4.495 -3 5 C-1.125 1.125 -1.125 1.125 0 0 Z " fill="#DBE6F2" transform="translate(288,51)"/>
<path d="M0 0 C6.75 0.875 6.75 0.875 9 2 C9 2.66 9 3.32 9 4 C4.545 3.01 4.545 3.01 0 2 C0 1.34 0 0.68 0 0 Z " fill="#91B1D3" transform="translate(127,41)"/>
<path d="M0 0 C3.3 0 6.6 0 10 0 C6.39338934 1.80330533 3.91606575 2.46599103 0 3 C0 2.01 0 1.02 0 0 Z " fill="#CEDDEC" transform="translate(234,25)"/>
<path d="M0 0 C0 0.99 0 1.98 0 3 C-1 4 -1 4 -3.5625 4.0625 C-4.7690625 4.0315625 -4.7690625 4.0315625 -6 4 C-6 3.01 -6 2.02 -6 1 C-4.02 0.67 -2.04 0.34 0 0 Z " fill="#F5F8FB" transform="translate(423,53)"/>
<path d="M0 0 C0.33 0 0.66 0 1 0 C1.125 5.75 1.125 5.75 0 8 C-0.66 8 -1.32 8 -2 8 C-2.125 5.125 -2.125 5.125 -2 2 C-1.34 1.34 -0.68 0.68 0 0 Z " fill="#6593C8" transform="translate(276,48)"/>
<path d="M0 0 C-0.33 1.32 -0.66 2.64 -1 4 C-1 3.34 -1 2.68 -1 2 C-1.99 2 -2.98 2 -4 2 C-4.33 2.66 -4.66 3.32 -5 4 C-5 3.01 -5 2.02 -5 1 C-5.66 0.67 -6.32 0.34 -7 0 C-4.3333581 -1.33332095 -2.83319697 -0.67102033 0 0 Z " fill="#D9E5F1" transform="translate(311,48)"/>
<path d="M0 0 C1.32 0 2.64 0 4 0 C4 1.65 4 3.3 4 5 C2.68 4.67 1.36 4.34 0 4 C0 2.68 0 1.36 0 0 Z " fill="#7EA4CA" transform="translate(80,30)"/>
<path d="M0 0 C0 0.66 0 1.32 0 2 C-2.70879335 3.35439668 -5.00933268 3.06501451 -8 3 C-8 2.34 -8 1.68 -8 1 C-5.10765685 0.17361624 -3.11257569 0 0 0 Z " fill="#8DAFD1" transform="translate(202,78)"/>
<path d="M0 0 C0.99 0.495 0.99 0.495 2 1 C2.94934202 3.92713788 3.23176473 5.42831368 2.0625 8.3125 C1.5365625 9.1478125 1.5365625 9.1478125 1 10 C-0.1577506 6.52674819 -0.06866652 3.63932552 0 0 Z " fill="#CEDDED" transform="translate(270,49)"/>
<path d="M0 0 C-0.33 3.3 -0.66 6.6 -1 10 C-1.33 10 -1.66 10 -2 10 C-2 8.02 -2 6.04 -2 4 C-2.66 3.67 -3.32 3.34 -4 3 C-1.125 0 -1.125 0 0 0 Z " fill="#E9F0F7" transform="translate(282,49)"/>
<path d="M0 0 C0.99 0 1.98 0 3 0 C3 0.99 3 1.98 3 3 C3.66 3 4.32 3 5 3 C4.67 3.66 4.34 4.32 4 5 C2.68 5 1.36 5 0 5 C0 3.35 0 1.7 0 0 Z " fill="#A4C0DE" transform="translate(386,43)"/>
<path d="M0 0 C0.99 0 1.98 0 3 0 C3 0.99 3 1.98 3 3 C3.66 3 4.32 3 5 3 C4.67 3.66 4.34 4.32 4 5 C2.68 5 1.36 5 0 5 C0 3.35 0 1.7 0 0 Z " fill="#A3BEDE" transform="translate(317,43)"/>
<path d="M0 0 C1.32 0.66 2.64 1.32 4 2 C2.68 3.32 1.36 4.64 0 6 C-0.99 5.34 -1.98 4.68 -3 4 C-2.01 4 -1.02 4 0 4 C0 2.68 0 1.36 0 0 Z " fill="#AEC6E2" transform="translate(344,55)"/>
<path d="M0 0 C0.433125 0.61875 0.86625 1.2375 1.3125 1.875 C2.99740483 4.2197245 2.99740483 4.2197245 6 6 C3.625 6.125 3.625 6.125 1 6 C0.34 5.34 -0.32 4.68 -1 4 C-0.625 1.875 -0.625 1.875 0 0 Z " fill="#7DA4D0" transform="translate(338,55)"/>
<path d="M0 0 C0.33 0 0.66 0 1 0 C1 2.31 1 4.62 1 7 C1.66 7.33 2.32 7.66 3 8 C3.33 8.66 3.66 9.32 4 10 C3.01 10.33 2.02 10.66 1 11 C0 10 0 10 -0.09765625 7.71484375 C-0.08605469 6.79832031 -0.07445312 5.88179687 -0.0625 4.9375 C-0.05347656 4.01839844 -0.04445313 3.09929688 -0.03515625 2.15234375 C-0.02355469 1.44207031 -0.01195312 0.73179688 0 0 Z " fill="#C7D8EB" transform="translate(391,48)"/>
<path d="M0 0 C0.33 0 0.66 0 1 0 C1.33 2.64 1.66 5.28 2 8 C1.01 8 0.02 8 -1 8 C-1.04241723 5.66705225 -1.04092937 3.33297433 -1 1 C-0.67 0.67 -0.34 0.34 0 0 Z " fill="#6D99CB" transform="translate(254,51)"/>
<path d="M0 0 C6.15234375 0.5859375 6.15234375 0.5859375 8 1 C8.33 1.66 8.66 2.32 9 3 C2.84765625 2.4140625 2.84765625 2.4140625 1 2 C0.67 1.34 0.34 0.68 0 0 Z " fill="#769ECA" transform="translate(45,52)"/>
<path d="M0 0 C0.99 0.66 1.98 1.32 3 2 C3 2.66 3 3.32 3 4 C-0.63 4 -4.26 4 -8 4 C-8 3.67 -8 3.34 -8 3 C-5.36 3 -2.72 3 0 3 C0 2.01 0 1.02 0 0 Z " fill="#D0DFEE" transform="translate(217,48)"/>
<path d="M0 0 C0.33 0 0.66 0 1 0 C0.67 2.97 0.34 5.94 0 9 C-0.66 9 -1.32 9 -2 9 C-2.20140476 5.37471432 -1.85776765 3.13498292 0 0 Z " fill="#7CA4D0" transform="translate(270,32)"/>
<path d="M0 0 C2.475 0.495 2.475 0.495 5 1 C5 2.32 5 3.64 5 5 C2.525 4.01 2.525 4.01 0 3 C0 2.01 0 1.02 0 0 Z " fill="#7AA1C9" transform="translate(73,28)"/>
</svg>
